<svg xmlns="http://www.w3.org/2000/svg" width="153" height="160" viewBox="0 0 153 160">
    <defs>
        <linearGradient id="a" x1="1.28%" x2="98.643%" y1="60.942%" y2="38.141%">
            <stop offset="0%" stop-color="#F76148"/>
            <stop offset="100%" stop-color="#EE4E4E"/>
        </linearGradient>
        <linearGradient id="b" x1="-.303%" x2="99.995%" y1="50.097%" y2="50.097%">
            <stop offset="0%" stop-color="#00B4DB"/>
            <stop offset="100%" stop-color="#0083B0"/>
        </linearGradient>
    </defs>
    <g fill="none" fill-rule="evenodd">
        <path fill="url(#a)" d="M112.876 75.783c5.373 23.33-9.04 46.66-32.153 52.083-23.113 5.423-46.226-9.125-51.6-32.455-5.372-23.33 9.041-46.659 32.154-52.082C72.62 40.66 78.761 54.95 87.972 60.546c9.552 5.854 22.09 3.357 24.904 15.237z"/>
        <path fill="url(#b)" d="M52.502 31.79l1.822 1.842c.608.614 1.215 1.14 1.735 1.666a253.983 253.983 0 0 0 3.904 3.421c.434.351.868.702 1.215.965 1.128.877 1.735 1.316 1.735 1.316S82 27.14 82 16.526c0-3.245-1.475-6.14-3.817-8.07-.26-.175-.52-.438-.781-.614a9.442 9.442 0 0 0-3.73-1.579c-.695-.175-1.389-.175-2.083-.175-.868 0-1.909.263-2.863.701-.26.088-.52.264-.694.351-.26.176-.52.264-.694.439-.26.175-.434.35-.694.526-.26.176-.434.351-.694.527C64.215 10.21 63 12.228 63 14.246c0-1.316-.52-2.544-1.301-3.685l-.781-1.052c-.174-.176-.347-.439-.607-.614-.521-.527-1.128-.965-1.649-1.316-.26-.175-.52-.263-.694-.439-.087-.087-.26-.175-.347-.175-.26-.088-.52-.263-.78-.351-.348-.175-.782-.263-1.129-.35-.26-.089-.52-.089-.694-.176-.26 0-.434-.088-.694-.088-3.21 0-6.073 1.491-7.982 3.772A10.55 10.55 0 0 0 44 16.439c0 .701.087 1.315.174 2.017.173.702.347 1.404.607 2.105.173.351.26.702.434 1.053.347.702.694 1.404 1.127 2.105a25.117 25.117 0 0 0 2.863 4.123c.955 1.404 2.083 2.72 3.297 3.947"/>
        <path fill="#32C6D4" d="M59 42c-.308-.3-.615-.6-1-1 .385.3.692.7 1 1M54 38c-.632-.353-1.263-.647-2-1 .737.353 1.368.647 2 1M60 43s-.737-.357-2-1c1.158.643 2 1 2 1M51 35c.632.737 1.368 1.368 2 2l-2-2"/>
        <path fill="#2A3042" fill-rule="nonzero" d="M44.327 26.405c-.341-.606-.683-1.297-1.025-1.903-.171-.345-.257-.605-.428-.95a7.866 7.866 0 0 1-.513-1.903c-.085-.605-.17-1.21-.17-1.815 0-2.335.769-4.41 2.136-6.053 1.71-2.161 4.36-3.458 7.266-3.458.171 0 .428 0 .599.086.256 0 .427.087.683.087.342.086.684.173 1.026.346.257.086.428.173.684.346.085.086.256.086.342.173.256.086.427.259.684.432.513.346 1.025.778 1.538 1.21.171.173.342.346.513.605.257.26.513.606.684.952.684 1.037 1.197 2.248 1.197 3.371 0-1.815 1.111-3.717 2.735-5.1.171-.174.427-.346.598-.52.171-.172.428-.345.599-.432.256-.173.427-.26.684-.432.256-.086.427-.26.683-.346.855-.432 1.795-.692 2.65-.692.684 0 1.282.087 1.88.173 1.198.26 2.394.779 3.334 1.47.257.173.513.346.684.519 2.137 1.73 3.42 4.41 3.42 7.35 0 9.683-17.353 22.306-17.353 22.306s-.598-.433-1.624-1.21c-.342-.26-.684-.52-1.111-.865a200.426 200.426 0 0 1-3.59-3.113c-.513-.519-1.026-.95-1.624-1.47l-1.624-1.642a39.57 39.57 0 0 1-3.078-3.545c-.854-1.47-1.795-2.767-2.479-3.977m3.505 11.153c4.53 4.582 8.975 7.781 9.146 7.954l2.48 1.816 2.478-1.816c.171-.173 4.616-3.372 9.146-7.954.77-.778 1.539-1.643 2.308-2.421 13.591 5.62 23.25 19.108 23.25 34.843 0 20.75-16.668 37.61-37.183 37.61S22.274 90.73 22.274 69.98c0-15.735 9.66-29.31 23.25-34.843.77.865 1.539 1.643 2.308 2.42M59.542 112C82.367 112 101 93.238 101 70.067c0-17.12-10.172-31.817-24.703-38.302 3.162-4.323 4.786-8.3 4.786-11.931C81.083 12.225 74.93 6 67.407 6c-2.65 0-5.47 1.21-7.864 3.372C57.149 7.21 54.243 6 51.593 6c-7.522 0-13.676 6.225-13.676 13.834 0 3.63 1.624 7.608 4.786 11.931C28.172 38.25 18 53.035 18 70.067 18.085 93.152 36.634 112 59.543 112"/>
        <path fill="#2A3042" d="M31.32 81.547a33.53 33.53 0 0 1-1.862-11.065c0-3.916.67-7.66 1.862-11.065.15-.511.373-.937.522-1.447.298-.681 0-1.532-.67-1.873-.597-.255-1.341 0-1.565.681-.223.51-.372 1.021-.596 1.532C27.671 62.055 27 66.14 27 70.482c0 4.256.745 8.426 2.086 12.171.149.511.372 1.022.596 1.533.298.68.968 1.02 1.564.68.67-.34.894-1.191.67-1.872-.223-.51-.372-.936-.596-1.447M35.69 79.59c.169.533.422 1.066.676 1.598.338.71 1.098.977 1.774.71a1.458 1.458 0 0 0 .676-2.042c-.254-.444-.422-.976-.591-1.42-.93-2.575-1.521-5.417-1.521-8.436 0-2.93.507-5.772 1.52-8.436.17-.532.423-.976.592-1.42.338-.8 0-1.687-.676-2.043-.676-.266-1.52 0-1.774.71-.254.533-.423 1.066-.676 1.599C34.59 63.34 34 66.626 34 69.911c0 3.552.591 6.749 1.69 9.679M41.655 78.24c.3.665.978.915 1.58.665.676-.333.977-1.165.601-1.914-.225-.416-.376-.915-.526-1.331a16.366 16.366 0 0 1-.828-5.16c0-1.83.301-3.495.828-5.16.15-.499.3-.915.526-1.331.301-.749 0-1.581-.602-1.914-.601-.25-1.278 0-1.58.666-.225.499-.45.998-.6 1.498A18.597 18.597 0 0 0 40 70.5c0 2.164.376 4.244 1.053 6.241.15.5.376.999.602 1.498M89.115 83.03c-.296.681 0 1.532.666 1.873.592.255 1.332 0 1.554-.681.222-.51.37-1.021.592-1.532C93.26 78.945 94 74.86 94 70.518c0-4.256-.74-8.426-1.999-12.171-.148-.511-.37-1.022-.592-1.533-.296-.68-.962-1.02-1.554-.68-.666.34-.888 1.191-.666 1.872.222.51.37.936.518 1.447a33.722 33.722 0 0 1 1.85 11.065c0 3.916-.666 7.66-1.85 11.065-.222.511-.37.937-.592 1.447M82.775 62.27c.93 2.486 1.521 5.23 1.521 8.144 0 2.83-.507 5.573-1.52 8.145-.17.514-.423.943-.592 1.371-.338.772 0 1.63.676 1.972.676.257 1.52 0 1.774-.686.254-.514.423-1.028.676-1.543C86.41 76.844 87 73.672 87 70.5c0-3.258-.591-6.344-1.69-9.173-.169-.515-.422-1.029-.676-1.543-.338-.686-1.098-.943-1.774-.686-.76.343-1.098 1.2-.676 1.972.169.257.338.771.591 1.2M77.164 76.991c-.301.749 0 1.581.602 1.914.601.25 1.278 0 1.58-.666.225-.499.45-.998.6-1.498A18.597 18.597 0 0 0 81 70.5c0-2.164-.376-4.244-1.053-6.241-.15-.5-.376-.999-.602-1.498-.3-.666-.978-.916-1.58-.666-.676.333-.977 1.165-.601 1.914.225.416.376.915.526 1.331.527 1.582.828 3.33.828 5.16s-.301 3.495-.828 5.16c-.15.416-.3.915-.526 1.331"/>
        <path fill="#2A3042" fill-rule="nonzero" d="M48.921 70.256c0-6.051 4.943-10.91 10.909-10.91 6.05 0 10.909 4.944 10.909 10.91S65.796 81.165 59.83 81.165c-6.051 0-10.909-4.943-10.909-10.91M60.001 85C68.266 85 75 78.267 75 70s-6.733-15-15-15c-8.266 0-15 6.733-15 15-.084 8.267 6.648 15 15 15M19.851 28.509a3.09 3.09 0 0 1 3.107-3.1 3.09 3.09 0 0 1 3.107 3.1 3.09 3.09 0 0 1-3.107 3.1 3.09 3.09 0 0 1-3.107-3.1zM12.43 12.838V8.274l13.81-4.305v5.08l-13.81 3.789zM6.3 32.9a3.09 3.09 0 0 1-3.108-3.1 3.09 3.09 0 0 1 3.108-3.1 3.09 3.09 0 0 1 3.107 3.1C9.32 31.522 7.94 32.9 6.3 32.9zM29 28.94c0-.087 0-.173-.086-.259L29 1.041c0-.344-.173-.603-.432-.861-.258-.172-.517-.258-.863-.086l-.517.172c-.087 0-.087 0-.087.086h-.086l-16.83 5.253c-.605.172-1.295.947-1.295 1.377h.172V24.29c-.949-.517-1.985-.69-2.934-.69C2.762 23.6 0 26.27 0 29.8 0 33.245 2.848 36 6.214 36c3.366 0 6.215-2.755 6.215-6.2V16.11l13.81-3.875v11.021l-.174-.086c-1.122-.516-1.898-.86-3.02-.86a6.181 6.181 0 0 0-6.215 6.199c0 3.444 2.762 6.2 6.215 6.2 3.193 0 5.782-2.498 5.955-5.77zM106.931 96.566c1.14 0 2.037.944 2.037 2.145 0 1.2-.896 2.144-2.037 2.144-1.14 0-2.036-.943-2.036-2.144s.896-2.145 2.036-2.145zm4.073-12.783l9.041-3.002v3.517l-9.041 2.66v-3.175zm6.842 16.214c-1.14 0-2.036-.943-2.036-2.144s.896-2.145 2.036-2.145c1.14 0 2.036.944 2.036 2.145 0 1.115-.896 2.144-2.036 2.144zM106.93 103c2.2 0 4.073-1.887 4.073-4.29v-9.522l9.041-2.66v7.636h-.081c-.733-.343-1.222-.6-1.955-.6-2.28 0-4.073 1.887-4.073 4.289 0 2.402 1.792 4.29 4.073 4.29 2.118 0 3.828-1.717 3.991-4.033 0 0 0-.086-.081-.172L122 78.722a.799.799 0 0 0-.244-.6c-.163-.086-.326-.172-.57-.086l-.326.171h-.082-.081l-11.078 3.603c-.407.172-.814.944-.814.944h.163v12.01c-.49-.343-1.304-.514-1.955-.514-2.2 0-3.992 1.887-3.992 4.289-.244 2.574 1.63 4.461 3.91 4.461zM149.544 118.163l-3.667 31.83c0 .26-.085.518-.085.777 0 .086 0 .172-.085.259 0 .172-.085.345-.17.517 0 .087-.086.173-.086.26-.085.172-.085.258-.17.43 0 .087-.086.173-.171.26-.085.085-.085.258-.17.344-.086.087-.086.173-.171.259-.086.086-.17.259-.17.345-.086.086-.086.173-.171.259a1.19 1.19 0 0 0-.256.345c-.085.086-.17.172-.17.259l-.257.258-.255.26-.256.258c-.086.086-.17.173-.256.173-.085.086-.17.172-.341.258-.086.087-.17.087-.256.173-.085.086-.256.172-.341.172-.085.087-.17.087-.256.173-.085.086-.256.086-.341.172-.085 0-.17.087-.256.087-.17.086-.256.086-.426.172-.086 0-.17.087-.256.087-.17.086-.427.086-.597.172h-.085c-.256.086-.512.086-.683.086H138.458s0-.086-.085-.086c-.256 0-.512-.172-.853-.172l-3.24-.26c-.512-.086-1.024-.086-1.45-.258-.682-.259-1.365-.518-1.962-.949-.17-.172-.426-.259-.597-.431l-1.023-1.035a3.623 3.623 0 0 1-.767-1.208c-.683-1.294-.939-2.847-.768-4.4l3.667-31.83c0-.259.085-.518.085-.776 0-.087 0-.173.086-.26 0-.172.085-.344.17-.517 0-.086.085-.172.085-.259.086-.172.086-.258.171-.43 0-.087.085-.173.17-.26.086-.086.086-.258.171-.345.085-.086.085-.172.17-.259.086-.086.171-.258.171-.345.085-.086.085-.172.17-.258.086-.087.171-.173.257-.345.085-.087.17-.173.17-.26l.256-.258.256-.259.256-.259c.085-.086.17-.172.255-.172.086-.086.171-.173.342-.259.085-.086.17-.086.255-.172.086-.087.256-.173.342-.173.085-.086.17-.086.255-.172.086-.087.256-.087.341-.173.086 0 .171-.086.256-.086.17-.086.256-.086.427-.173.085 0 .17-.086.256-.086.17-.086.426-.086.597-.173h.085c.256-.086.511-.086.682-.086H138.885c.255 0 .511 0 .852.086l3.24.346c1.11.172 2.133.517 3.07 1.12.342.173.683.432.939.691 1.109.949 1.961 2.243 2.302 3.623.086.259.086.518.171.69.085.518.17 1.035.17 1.467 0 .258 0 .517-.085.776zm-30.188 22.514l-.682-.086c-.597-.086-1.28-.172-1.877-.259-.852-.086-1.62-.259-2.302-.345-1.706-.259-3.07-.517-4.093-.69-.853-.172-1.706-.345-2.559-.431-1.023-.086-2.047-.173-3.07-.173-4.69 0-9.466 1.035-14.156 2.502-.938.259-1.876.604-2.814.863-1.876.603-3.752 1.293-5.629 1.984h-.17c-3.07 1.035-5.884 2.07-8.613 2.846l-1.791.518c-.597.172-1.194.345-1.791.604l-.512.172-1.79.518c-.597.172-1.28.345-1.877.604-.17 0-.255.086-.426.086-.426.086-.853.259-1.194.345-.341.086-.597.172-.938.259-.512.086-1.023.258-1.535.345a21.705 21.705 0 0 1-4.69.517h-1.109a16.298 16.298 0 0 1-3.07-.517c-1.79-.518-3.411-1.38-5.031-2.416a14.602 14.602 0 0 1-2.218-1.811c-.767-.604-1.45-1.294-2.132-2.07-.938-.95-1.876-1.898-2.728-2.847-.683-.776-1.45-1.553-2.132-2.243-2.047-2.07-4.009-4.313-5.885-6.383-.597-.604-1.194-1.294-1.79-1.984-1.194-1.294-2.388-2.588-3.667-3.882-.597-.69-1.28-1.294-1.962-1.898-.938-.863-1.535-1.984-1.535-3.192 0-.258.085-.603.085-.862 0-.173.086-.345.086-.518.085-.259.17-.604.34-.862.171-.432.427-.777.768-1.122a7.72 7.72 0 0 1 .853-.776 4.408 4.408 0 0 1 2.473-.777c.427 0 .853.087 1.194.173l.768.259c.17.086.426.259.596.345.086 0 .086.086.171.086l.256.259 7.42 6.987 15.35 14.492c.085.086.17.173.255.173 0 0 .085 0 .085.086.086 0 .17.086.256.086H54.971c.085 0 .255 0 .34-.086l25.925-7.074c.683-.172 1.194-1.035 1.109-1.811a.663.663 0 0 0-.17-.431c0-.087-.086-.173-.171-.26l-.256-.258c-.256-.259-.597-.345-1.023-.345H52.497c-4.263 0-4.605-3.71-4.605-4.83v-.346-.086c0-.259.086-1.553.853-2.674l.512-.518c.17-.086.256-.258.426-.345l.512-.259c.512-.172 1.023-.345 1.79-.345.171 0 .257-.086.427-.086v-.086h20.893c.086 0 .086.086.171.086h.17c.086 0 .256-.086.342-.172a48.836 48.836 0 0 1 3.07-1.812c4.69-2.329 10.574-3.71 16.288-3.71 4.349 0 8.187.777 11.427 2.157.341.173.597.26.938.432.597.345 1.194.604 1.791 1.035.853.517 1.62 1.121 2.303 1.811.085.087.255.173.426.26.085 0 .17.085.256.085l16.544 2.502-2.132 18.978c-1.706-.26-3.667-.518-5.543-.777zm-63.788-5.003l-2.73-2.501h12.025l-9.295 2.501zm95-25.188c-1.791-2.33-4.35-3.71-7.249-4.055l-3.24-.345c-.427-.086-.683-.086-1.194-.086v3.364-3.278h-.086a10.78 10.78 0 0 0-10.745 9.662l-.341 3.019h-.085l-15.777-2.416c-4.349-3.795-10.83-5.952-18.335-5.952-7.504 0-15.18 2.33-20.808 5.607h-20.21c-3.241 0-5.117 1.38-6.14 2.502-1.877 1.984-2.133 4.572-2.133 5.434v.777l-10.403-9.748c-1.535-1.38-3.497-2.156-5.544-2.156a8.215 8.215 0 0 0-6.14 2.76 8.6 8.6 0 0 0-2.132 6.038c.086 2.243 1.024 4.314 2.644 5.78 2.473 2.502 4.86 5.09 7.078 7.591 1.962 2.243 3.923 4.4 6.055 6.556.682.69 1.45 1.466 2.047 2.156 3.752 4.055 8.101 8.627 13.9 10.18 1.706.43 3.411.69 5.202.69 4.69 0 9.21-1.467 13.56-2.847l.51-.173h.086c1.109-.345 2.303-.69 3.411-1.035 2.73-.776 5.543-1.725 8.613-2.846l.256-.087.086-.086c7.163-2.502 14.497-5.09 21.404-5.09 1.706 0 3.326.173 4.776.518 1.876.431 5.117.863 8.528 1.38l.682.087c1.876.258 3.752.517 5.458.776l.426.086-.256 2.243a10.787 10.787 0 0 0 2.303 8.022c1.79 2.33 4.35 3.71 7.249 4.055l3.24.345c.427.086.853.086 1.28.086a10.78 10.78 0 0 0 10.744-9.661l3.667-31.831c.256-2.847-.596-5.693-2.387-8.022z"/>
        <path fill="#2A3042" fill-rule="nonzero" d="M141 122.953a1.866 1.866 0 0 1-1.86-1.86c0-1.023.837-1.86 1.86-1.86 1.023 0 1.86.837 1.86 1.86 0 1.023-.837 1.86-1.86 1.86m0-5.953a3.97 3.97 0 0 0-4 4c0 2.233 1.767 4 4 4s4-1.767 4-4-1.767-4-4-4M140 135.86a1.866 1.866 0 0 1-1.86-1.86c0-1.023.837-1.86 1.86-1.86 1.023 0 1.86.837 1.86 1.86 0 1.023-.837 1.86-1.86 1.86m0-5.86a3.97 3.97 0 0 0-4 4c0 2.233 1.767 4 4 4s4-1.767 4-4-1.86-4-4-4M136 149.86a1.866 1.866 0 0 1-1.86-1.86c0-1.023.837-1.86 1.86-1.86 1.023 0 1.86.837 1.86 1.86 0 1.023-.837 1.86-1.86 1.86m0-5.86a3.97 3.97 0 0 0-4 4c0 2.233 1.767 4 4 4s4-1.767 4-4-1.767-4-4-4"/>
        <path fill="#2A3042" d="M61.001 76A4.979 4.979 0 0 0 66 71c0-2.778-2.222-5-4.999-5a4.979 4.979 0 0 0-4.998 5c-.093 2.778 2.221 5 4.998 5"/>
    </g>
</svg>
