<svg xmlns="http://www.w3.org/2000/svg" width="29" height="37" viewBox="0 0 29 37">
    <path fill="#E93D50" fill-rule="nonzero" d="M24.22 19.66c-.044-4.686 3.68-6.933 3.846-7.045-2.092-3.18-5.351-3.616-6.513-3.667-2.773-.291-5.411 1.697-6.819 1.697-1.404 0-3.576-1.653-5.876-1.61-3.023.047-5.81 1.826-7.367 4.639-3.14 5.662-.804 14.05 2.257 18.642 1.496 2.247 3.28 4.772 5.621 4.682 2.256-.094 3.108-1.516 5.835-1.516 2.726 0 3.493 1.516 5.88 1.47 2.426-.048 3.964-2.292 5.45-4.546 1.717-2.608 2.424-5.132 2.466-5.262-.054-.026-4.732-1.888-4.78-7.484zM19.737 5.909C20.98 4.342 21.818 2.169 21.59 0c-1.79.076-3.961 1.239-5.246 2.802-1.152 1.387-2.161 3.6-1.89 5.725 1.998.162 4.038-1.055 5.282-2.618z"/>
</svg>
