<svg xmlns="http://www.w3.org/2000/svg" width="64" height="64" viewBox="0 0 64 64">
    <defs>
        <linearGradient id="a" x1="-.084%" x2="100.089%" y1="49.957%" y2="49.957%">
            <stop offset="0%" stop-color="#E94A53"/>
            <stop offset="100%" stop-color="#F96447"/>
        </linearGradient>
        <linearGradient id="b" x1="-.114%" x2="100.471%" y1="49.84%" y2="49.84%">
            <stop offset="0%" stop-color="#E94A53"/>
            <stop offset="100%" stop-color="#F96447"/>
        </linearGradient>
        <linearGradient id="c" x1=".113%" x2="99.585%" y1="50.148%" y2="50.148%">
            <stop offset="0%" stop-color="#E94A53"/>
            <stop offset="100%" stop-color="#F96447"/>
        </linearGradient>
        <linearGradient id="d" x1="-.009%" x2="100.009%" y1="49.991%" y2="49.991%">
            <stop offset="0%" stop-color="#E94A53"/>
            <stop offset="100%" stop-color="#F96447"/>
        </linearGradient>
    </defs>
    <g fill="none" fill-rule="evenodd">
        <path d="M47.659 11.22l.312-.312 1.983 1.984-.311.311z"/>
        <path fill="url(#a)" d="M8.07 5.75c.301 0 .58-.115.811-.347.44-.44.44-1.183 0-1.623L5.565.464a1.162 1.162 0 0 0-1.623 0c-.44.44-.44 1.182 0 1.623l3.293 3.316c.232.232.533.348.835.348z" transform="translate(9.971 43.826)"/>
        <path fill="url(#b)" d="M.44 3.988C0 4.43 0 5.171.44 5.612l3.293 3.316c.232.231.51.347.812.347.301 0 .58-.116.812-.347.44-.441.44-1.183 0-1.624L2.064 3.988c-.44-.463-1.16-.463-1.623 0z" transform="translate(9.971 43.826)"/>
        <g>
            <path fill="url(#c)" d="M25.229 53.635c0 .626-.51 1.16-1.16 1.16-.626 0-1.159-.51-1.159-1.16 0-.626.51-1.16 1.16-1.16.626 0 1.159.534 1.159 1.16z"/>
            <path fill="url(#d)" fill-rule="nonzero" d="M63.026 2.667c-.672-.789-1.554-1.253-2.55-1.322-.998-.07-1.879.255-2.366.51L57.02.51a.852.852 0 0 0-1.206-.116.878.878 0 0 0-.115 1.23l.95 1.182-1.206.811L54.4 2.342a.852.852 0 0 0-1.206-.116c-.348.302-.417.858-.116 1.23l.928 1.135-1.206.812-.997-1.23a.852.852 0 0 0-1.206-.115.878.878 0 0 0-.116 1.229l.905 1.09-1.206.811-.974-1.182A.852.852 0 0 0 48 5.89a.878.878 0 0 0-.116 1.229l.858 1.043-.44.302c-.534.348-.789.95-.766 1.553l-21.588 21.52c.093-.696.278-1.392.533-2.25.047-.162.093-.348.14-.51.556-1.994-.72-3.594-2.204-4.105-1.39-.486-3.292-.046-4.174 2.041v.023c-2.017 5.032-3.57 8.163-8.278 9.252-4.127.951-7.397 2.922-9.437 5.658C.765 44.012-.092 46.98.139 49.994c.371 4.754 3.525 8.44 5.357 10.226 2.365 2.296 5.82 3.594 9.182 3.594.72 0 1.415-.07 2.134-.185 3.408-.58 6.098-2.55 7.582-5.542a1.178 1.178 0 0 0-.51-1.554 1.178 1.178 0 0 0-1.554.51c-1.136 2.296-3.246 3.827-5.913 4.29-3.292.58-6.956-.533-9.321-2.805-1.6-1.554-4.36-4.754-4.661-8.742-.325-4.383 2.133-9.74 10.064-11.572 5.75-1.344 7.721-5.263 9.878-10.643.37-.858.904-.881 1.298-.742.395.14.928.603.742 1.322-.046.185-.092.348-.139.51-.487 1.693-.88 3.13-.51 5.078l-3.084 3.084a1.53 1.53 0 0 0-.44 1.067c0 .394.162.788.44 1.067l2.899 2.898c.301.302.695.44 1.066.44.394 0 .789-.138 1.067-.44L27.57 40c1.299.742 2.783 1.16 5.24.232.302-.116.534-.093.673.023.186.162.278.464.209.788-.116.65-.742 1.206-1.716 1.53-5.357 1.833-6.655 2.598-8.418 6.54-.255.58 0 1.275.58 1.53.162.07.302.093.464.093.44 0 .858-.255 1.067-.695 1.368-3.108 1.97-3.571 7.049-5.287 1.785-.603 2.945-1.81 3.223-3.293.209-1.136-.162-2.296-.997-2.991-.812-.673-1.878-.835-2.968-.418-1.23.464-1.994.464-2.713.186l23.095-23.096c.093-.07.186-.14.255-.209l.58-.58c.44.047.997.233 1.16.302.162.07.324.093.51.116a1.735 1.735 0 0 0 1.646-.904l.023-.047c.44-.788 1.855-3.408 2.806-5.101.14.023.278.046.418.046 1.576.116 2.99-.672 3.686-2.04a3.534 3.534 0 0 0-.417-4.058zm-38.4 37.217l-1.97-1.971 25.089-25.09c.116.278.278.51.533.696l1.53 1.206-25.182 25.16zM61.542 5.797c-.14.278-.58.928-1.6.858-.371-.023-.765-.14-1.183-.37l-.37-.186-.21.347c-.695 1.183-2.759 4.963-3.385 6.099-.37-.116-.95-.278-1.484-.325-.603-.046-1.043.07-1.322.325-.139.14-.417.417-.649.626l-1.414-1.113c.324-.626.116-1.438-.186-2.017l9.136-6.169s.673-.44 1.392-.394c.417.023.765.209 1.066.58.44.464.51 1.16.209 1.74z"/>
        </g>
    </g>
</svg>
