<svg xmlns="http://www.w3.org/2000/svg" width="152" height="154" viewBox="0 0 152 154">
    <defs>
        <linearGradient id="a" x1=".902%" x2="98.768%" y1="61.383%" y2="38.678%">
            <stop offset="0%" stop-color="#00B4DB"/>
            <stop offset="100%" stop-color="#0083B0"/>
        </linearGradient>
        <linearGradient id="b" x1=".008%" x2="100.059%" y1="50.029%" y2="50.029%">
            <stop offset="0%" stop-color="#F76148"/>
            <stop offset="100%" stop-color="#EE4E4E"/>
        </linearGradient>
    </defs>
    <g fill="none" fill-rule="evenodd">
        <ellipse cx="128.113" cy="8.546" fill="url(#a)" rx="7.642" ry="7.566"/>
        <path fill="url(#b)" d="M31.197 96.85L8 72.016C-2.877 60.265-2.158 42.016 9.62 31.245L34.703 8.28c11.867-10.771 23.195-4.451 34.073 7.21l10.34 10.504 25.352 8.457c10.879 11.75 4.765 30.177-7.012 40.948L72.373 98.364c-11.778 10.95-30.298 10.237-41.176-1.513z"/>
        <g fill="#2A3042">
            <path d="M50.796 49.138c.36.178.809.445 1.079.712a3.235 3.235 0 0 0-1.08-.712M52.504 39.613c0-.09.09-.178.18-.267-.09.089-.09.178-.18.267M49.537 48.603c.45.179.9.357 1.259.624-.36-.178-.81-.445-1.259-.624M47.47 48.336c.808 0 1.438.178 2.157.446-.72-.268-1.439-.446-2.158-.446M60.415 47.535l-4.495-4.362 4.495 4.362c.27.267.63.445.99.445-.27 0-.72-.178-.99-.445M62.573 45.577l-6.923-6.854 6.923 6.854zM54.392 38.277c-.45 0-.9.178-1.169.535 0 .089-.09.089-.09.178 0-.09.09-.09.09-.178.27-.357.72-.535 1.169-.535M39.378 56.526c0-4.45 3.416-8.012 7.822-8.1-4.496.088-7.822 3.65-7.822 8.1 0 4.54 3.776 8.19 8.36 8.19-4.584-.09-8.36-3.74-8.36-8.19"/>
            <path fill-rule="nonzero" d="M74.35 83.32c0 .178-.18.267-.27.267H28.23c-.18 0-.27-.178-.27-.267V17.892c0-.178.18-.267.27-.267h45.76c.18 0 .27.178.27.267V83.32h.09zm3.956-65.428c0-2.314-1.888-4.183-4.225-4.183H28.23c-2.338 0-4.226 1.869-4.226 4.183V83.32c0 2.315 1.888 4.184 4.226 4.184h45.76c2.338 0 4.226-1.87 4.226-4.184V17.892h.09z"/>
            <path d="M51.155 92.222c-2.607 0-4.765 2.136-4.765 4.718 0 2.581 2.158 4.718 4.765 4.718 2.608 0 4.765-2.137 4.765-4.718 0-2.582-2.157-4.718-4.765-4.718"/>
            <path fill-rule="nonzero" d="M117.954 40.414c-.54.089-1.079-.356-1.169-.89 0-.356.09-.623.18-.801.09-.09.36-.357.72-.357l15.373-1.78c.09.712.27 1.424.54 2.048l-15.644 1.78zm20.588-.09c-1.349-1.067-2.158-2.58-2.428-4.183-.18-1.691.27-3.294 1.349-4.629 1.079-1.335 2.607-2.136 4.315-2.403h.72c3.236 0 5.933 2.403 6.383 5.608.45 3.471-2.068 6.587-5.574 7.032-1.798.09-3.417-.356-4.765-1.424zM102.31 71.304V56.17c0-.712.629-1.246 1.348-1.246.72 0 1.349.534 1.349 1.246v15.222c0 .712-.63 1.246-1.349 1.246-.72 0-1.348-.623-1.348-1.335zm-48.189 53.054c1.978 10.415 1.618 17.982-1.259 21.988-1.618 2.225-4.045 3.382-7.372 3.382-4.225 0-7.552-1.246-10.069-3.917-4.405-4.54-5.034-12.017-5.124-15.222 2.157-.89 3.686-2.937 3.686-5.34v-14.866h16.362c.81 2.136 2.607 7.833 3.776 13.975zM84.87 103.26c0 1.78-1.438 3.205-3.326 3.205H21.127c-1.798 0-3.326-1.425-3.326-3.205V10.504c0-1.78 1.438-3.205 3.326-3.205h60.416c1.798 0 3.326 1.425 3.326 3.205v92.756zm-58.257 5.875h3.056v16.112c0 .802-.719 1.425-1.528 1.425-.81 0-1.528-.623-1.528-1.425v-16.112zm81.992-81.095l9.62-12.284c.45.534.989 1.068 1.528 1.513l-9.53 12.107c-.36.445-1.079.534-1.528.178-.27-.267-.36-.534-.36-.712 0-.178 0-.445.27-.802zm16.183-24.39c.27 0 .539-.09.809-.09 1.438 0 2.787.446 3.866 1.336 1.348 1.068 2.247 2.492 2.427 4.184a6.51 6.51 0 0 1-1.259 4.629c-1.079 1.335-2.517 2.225-4.225 2.403-1.708.178-3.417-.267-4.765-1.246-1.349-1.068-2.248-2.493-2.427-4.184a6.51 6.51 0 0 1 1.258-4.629c1.079-1.335 2.607-2.136 4.316-2.403zm27.06 30.622c-.629-5.074-5.304-8.813-10.518-8.19-2.517.267-4.765 1.513-6.293 3.472a9.093 9.093 0 0 0-1.439 2.581l-16.362 1.87a5.316 5.316 0 0 0-3.597 2.047c-.45.534-.719 1.157-.899 1.78-4.315.713-7.192 3.74-8.9 7.033 0-2.582.899-6.32 4.225-11.038.45.089.99.178 1.439.178a5.559 5.559 0 0 0 4.315-2.048l10.07-12.907c.539.089 1.168.178 1.708.178 2.877 0 5.664-1.246 7.462-3.65 3.236-4.095 2.427-9.97-1.708-13.086-4.136-3.115-10.07-2.403-13.306 1.692-1.529 1.958-2.248 4.45-1.888 6.854v.178L105.008 25.37c-.9 1.157-1.259 2.581-1.08 4.006.09.623.27 1.157.54 1.78-7.282 10.326-5.394 17.091-3.596 20.118-1.798.98-2.967 2.76-2.967 4.896v15.222c0 2.403 1.529 4.362 3.686 5.163 1.529 23.144-.36 36.853-5.933 43.084-2.697 3.027-6.383 4.451-11.598 4.718-9.8 0-12.407-9.258-13.126-13.975h10.34c3.955 0 7.101-3.205 7.101-7.122V10.237c0-3.917-3.056-6.943-7.102-6.943H21.038c-3.956 0-7.103 2.937-7.103 6.943v93.023c0 3.917 3.057 7.122 7.103 7.122h1.258v14.865c0 2.404 1.529 4.451 3.686 5.341.09 3.828.9 12.463 6.383 18.16C35.692 152.22 40.187 154 45.581 154c4.855 0 8.541-1.78 10.969-5.163 6.922-9.792.988-31.067-1.529-38.366H66.53c.27 1.69.809 4.717 2.068 7.477 2.966 7.032 8.36 10.682 15.553 10.682h.09l.09.09c6.473-.268 11.238-2.226 14.744-6.143 6.473-7.21 8.72-21.542 7.102-46.111 1.888-.89 3.237-2.76 3.237-4.985V56.17c0-2.136-1.259-4.006-3.147-4.985.18-.98.72-2.938 1.709-4.718 1.348-2.492 3.056-3.828 5.304-4.273.989 1.603 2.697 2.582 4.675 2.582h.63l18.07-2.137.09.09c1.708 1.335 3.686 2.047 5.843 2.047.36 0 .72 0 1.17-.09 5.034-.622 8.72-5.251 8.09-10.414z"/>
            <path d="M60.236 47.001c.27.267.629.445 1.078.445.36 0 .81-.178 1.08-.445.539-.534.629-1.335.269-1.87-.09-.088-.09-.177-.18-.266l-7.192-7.122c-.36-.178-.81-.356-1.349-.356-.45 0-.989.178-1.258.445l-.09.09-.27.266c-.09.09-.18.178-.18.267-.09.09-.09.179-.09.179-.09.089-.09.178-.09.356v10.86c-.18-.178-.36-.267-.539-.445-.36-.267-.72-.534-1.169-.713-.45-.178-.809-.356-1.258-.534a9.143 9.143 0 0 0-2.248-.267h-.27c-4.585.178-8.091 3.828-8.091 8.457 0 4.629 3.956 8.457 8.63 8.457 4.406 0 8.092-3.383 8.452-7.656V42.55h.09l4.675 4.451z"/>
        </g>
    </g>
</svg>
