<svg xmlns="http://www.w3.org/2000/svg" width="109" height="109" viewBox="0 0 109 109">
    <g fill="none" fill-rule="evenodd">
        <circle cx="54.5" cy="54.5" r="54.5" fill="#E93D50"/>
        <path fill="#FFF" d="M78.95 42.477c-.589-2.142-2.311-3.83-4.496-4.406C70.464 37 54.5 37 54.5 37s-15.964 0-19.955 1.03c-2.142.576-3.907 2.306-4.495 4.447C29 46.388 29 54.5 29 54.5s0 8.153 1.05 12.023c.588 2.141 2.31 3.83 4.495 4.406C38.578 72 54.5 72 54.5 72s15.963 0 19.954-1.03c2.185-.576 3.907-2.264 4.496-4.405C80 62.653 80 54.54 80 54.54s.042-8.153-1.05-12.064z"/>
        <path fill="#E93D50" d="M49.923 61.63L63 54.5l-13.077-7.13z"/>
    </g>
</svg>
