<svg xmlns="http://www.w3.org/2000/svg" width="64" height="59" viewBox="0 0 64 59">
    <defs>
        <linearGradient id="a" x1=".382%" x2="100.419%" y1="50.124%" y2="50.124%">
            <stop offset="0%" stop-color="#E94A53"/>
            <stop offset="100%" stop-color="#F96447"/>
        </linearGradient>
        <linearGradient id="b" x1=".009%" x2="99.886%" y1="49.835%" y2="49.835%">
            <stop offset="0%" stop-color="#E94A53"/>
            <stop offset="100%" stop-color="#F96447"/>
        </linearGradient>
        <linearGradient id="c" x1=".223%" x2="99.89%" y1="49.751%" y2="49.751%">
            <stop offset="0%" stop-color="#E94A53"/>
            <stop offset="100%" stop-color="#F96447"/>
        </linearGradient>
        <linearGradient id="d" x1="-.008%" y1="50.007%" y2="50.007%">
            <stop offset="0%" stop-color="#E94A53"/>
            <stop offset="100%" stop-color="#F96447"/>
        </linearGradient>
    </defs>
    <g fill="none" fill-rule="evenodd">
        <path fill="url(#a)" d="M24.709 42.291a1.008 1.008 0 0 0-1.418 0 1.008 1.008 0 0 0 0 1.418c.389.388 1.03.388 1.418 0a1.008 1.008 0 0 0 0-1.418z"/>
        <path fill="url(#b)" d="M22.699 38.88l-2.932-3.519c-.402-.481-1.064-.481-1.466 0-.401.482-.401 1.278 0 1.76l2.932 3.518c.402.481 1.064.481 1.466 0 .401-.506.401-1.278 0-1.76z"/>
        <path fill="url(#c)" d="M25.693 35.87l-2.918-3.502c-.409-.49-1.06-.49-1.468 0a1.419 1.419 0 0 0 0 1.762l2.918 3.502c.409.49 1.06.49 1.468 0 .41-.513.41-1.294 0-1.762z"/>
        <path fill="url(#d)" fill-rule="nonzero" d="M63.971 2.592a1.254 1.254 0 0 0-1.08-.983L49.537.009a1.25 1.25 0 0 0-1.328.868l-1.667 5.099L33.776 18.94.744 33.711c-.45.206-.743.64-.743 1.12-.022.48.248.938.698 1.167l14.546 7.385 4.819 14.748c.157.48.585.823 1.103.869h.09c.473 0 .9-.274 1.126-.709L39.068 24.36 51.97 11.258 63.43 3.94c.429-.274.654-.823.541-1.349zM21.482 54.404L17.43 42.08c-.112-.32-.338-.595-.63-.732L4.167 34.946l24.7-11.044-2.341 2.401a1.284 1.284 0 0 0 0 1.806l3.535 3.59a1.237 1.237 0 0 0 1.779 0l1.644-1.669-12.002 24.374zM37.11 22.736l-6.17 6.265-1.779-1.806 6.17-6.265.022-.023L47.624 8.468l1.779 1.807-12.294 12.461zm14.23-14.085l-2.296-2.31 1.193-3.658 8.827 1.052-7.724 4.916z"/>
    </g>
</svg>
