<svg xmlns="http://www.w3.org/2000/svg" width="63" height="63" viewBox="0 0 63 63">
    <defs>
        <linearGradient id="a" x1=".069%" x2="99.985%" y1="49.775%" y2="49.775%">
            <stop offset="0%" stop-color="#E94A53"/>
            <stop offset="100%" stop-color="#F96447"/>
        </linearGradient>
        <linearGradient id="b" x1=".088%" x2="100.134%" y1="49.918%" y2="49.918%">
            <stop offset="0%" stop-color="#E94A53"/>
            <stop offset="100%" stop-color="#F96447"/>
        </linearGradient>
        <linearGradient id="c" x1=".001%" x2="100.149%" y1="49.962%" y2="49.962%">
            <stop offset="0%" stop-color="#E94A53"/>
            <stop offset="100%" stop-color="#F96447"/>
        </linearGradient>
    </defs>
    <g fill="none" fill-rule="evenodd">
        <path fill="url(#a)" d="M24.703 34.297a.98.98 0 0 0-1.406 0 .98.98 0 0 0 0 1.406.98.98 0 0 0 1.406 0 .98.98 0 0 0 0-1.406z"/>
        <path fill="url(#b)" d="M32.024 31c-1.042 0-2.06.145-3.053.436a1.238 1.238 0 0 0-.848 1.5 1.24 1.24 0 0 0 1.503.847A8.66 8.66 0 0 1 32 33.444c4.725 0 8.553 3.824 8.553 8.544 0 4.72-3.828 8.543-8.553 8.543-4.725 0-8.553-3.824-8.553-8.543 0-.799.121-1.597.34-2.372a1.197 1.197 0 0 0-.849-1.5 1.199 1.199 0 0 0-1.502.847 10.79 10.79 0 0 0-.436 3.05C21 48.062 25.943 53 32 53s11-4.937 11-10.988C43.024 35.913 38.08 31 32.024 31z"/>
        <path fill="url(#c)" fill-rule="nonzero" d="M59.407 22.87H41.41a3.697 3.697 0 0 0-3.687 3.68 16.233 16.233 0 0 0-4.932-1.194v-5.73c4.859-.268 9.034-2.096 11.061-4.876h2.515c.684 0 1.22-.56 1.22-1.219 0-.682-.56-1.219-1.22-1.219H32.816v-2.51h13.552c.684 0 1.22-.537 1.22-1.22 0-.683-.56-1.219-1.22-1.219h-2.515c-2.027-2.78-6.202-4.608-11.06-4.876V1.219C32.792.536 32.23 0 31.57 0c-.66 0-1.22.56-1.22 1.219v1.268c-4.86.268-9.035 2.097-11.062 4.876H16.75c-.684 0-1.22.56-1.22 1.219a1.24 1.24 0 0 0 1.22 1.22h13.552v2.462H16.75c-.684 0-1.22.56-1.22 1.219 0 .682.56 1.219 1.22 1.219h2.515c2.027 2.779 6.202 4.608 11.06 4.876v5.754a15.55 15.55 0 0 0-4.931 1.194 3.697 3.697 0 0 0-3.687-3.681H3.687A3.697 3.697 0 0 0 0 26.526v9.875a3.697 3.697 0 0 0 3.687 3.681h6.91v13.775L3.565 60.88c-.488.487-.488 1.268 0 1.73.488.489 1.27.489 1.733 0l6.52-6.509 6.52 6.51c.488.488 1.269.488 1.733 0 .488-.488.488-1.268 0-1.731l-7.032-7.022V40.082h2.515a21.16 21.16 0 0 0-.05 1.243c0 5.657 2.955 10.63 7.4 13.483v6.949c0 .682.56 1.219 1.22 1.219.66 0 1.22-.561 1.22-1.22V56.1c1.905.805 3.98 1.22 6.154 1.22a16.1 16.1 0 0 0 6.153-1.22v5.657c0 .682.562 1.219 1.22 1.219.66 0 1.222-.561 1.222-1.22v-6.948c4.444-2.853 7.398-7.826 7.398-13.483 0-.414-.024-.828-.049-1.219h2.515v13.776l-7.032 7.021c-.488.488-.488 1.268 0 1.731.488.488 1.27.488 1.734 0l6.52-6.51 6.518 6.51c.489.488 1.27.488 1.734 0 .488-.487.488-1.268 0-1.73l-7.032-7.022V40.106h6.91a3.697 3.697 0 0 0 3.687-3.681v-9.85c.098-2.048-1.563-3.706-3.59-3.706zM22.757 7.362c2.075-1.512 5.347-2.462 8.79-2.462 3.467 0 6.714.95 8.79 2.462h-17.58zm0 7.363h17.58c-2.076 1.512-5.347 2.462-8.79 2.462-3.467.025-6.715-.95-8.79-2.462zM2.467 26.551c0-.683.56-1.22 1.22-1.22h17.995c.684 0 1.221.561 1.221 1.22v1.219H2.466v-1.22zm1.22 11.069c-.684 0-1.22-.561-1.22-1.22v-6.168h17.53a16.201 16.201 0 0 0-4.053 7.388H3.687zm27.86 17.237c-7.472 0-13.552-6.071-13.552-13.532 0-7.484 6.105-13.53 13.552-13.53 7.545 0 13.551 6.167 13.551 13.53 0 7.461-6.08 13.532-13.551 13.532zM60.627 36.4c0 .682-.561 1.219-1.22 1.219H47.149a16.158 16.158 0 0 0-4.029-7.388h17.532v6.169h-.025zm0-8.607H40.166v-1.219c0-.683.562-1.219 1.22-1.219h17.996c.684 0 1.221.56 1.221 1.22v1.218h.024z"/>
    </g>
</svg>
