<svg xmlns="http://www.w3.org/2000/svg" width="40" height="40" viewBox="0 0 40 40">
    <path fill="#E93D50" fill-rule="evenodd" d="M20 40C8.954 40 0 31.046 0 20S8.954 0 20 0s20 8.954 20 20-8.954 20-20 20zm4.929-31H15.07A6.078 6.078 0 0 0 9 15.071v9.858A6.078 6.078 0 0 0 15.071 31h9.858A6.078 6.078 0 0 0 31 24.929V15.07A6.078 6.078 0 0 0 24.929 9zm4.12 15.929a4.124 4.124 0 0 1-4.12 4.12H15.07a4.124 4.124 0 0 1-4.12-4.12V15.07a4.124 4.124 0 0 1 4.12-4.12h9.858a4.124 4.124 0 0 1 4.12 4.12v9.858zM20 15c-3.308 0-6 2.467-6 5.5s2.692 5.5 6 5.5 6-2.467 6-5.5-2.692-5.5-6-5.5zm0 9.106c-2.17 0-3.934-1.618-3.934-3.606 0-1.989 1.765-3.606 3.934-3.606 2.17 0 3.934 1.617 3.934 3.606 0 1.988-1.765 3.606-3.934 3.606zM25.5 13a1.507 1.507 0 0 0-1.5 1.5c0 .394.16.781.44 1.06.279.28.666.44 1.06.44.395 0 .781-.16 1.06-.44.28-.279.44-.666.44-1.06 0-.395-.16-.783-.44-1.06A1.506 1.506 0 0 0 25.5 13z"/>
</svg>
