<svg xmlns="http://www.w3.org/2000/svg" width="34" height="38" viewBox="0 0 34 38">
    <g fill="#E93D50" fill-rule="evenodd">
        <path d="M2.041 13h-.084C.88 13 0 13.993 0 15.203v9.592C0 26.011.88 27 1.957 27h.086C3.12 27 4 26.007 4 24.795v-9.592C3.999 13.993 3.118 13 2.041 13zM7 28.42c0 1.135.937 2.059 2.083 2.059h2.227v5.275c0 1.239 1.021 2.246 2.267 2.246h.097c1.25 0 2.27-1.009 2.27-2.246v-5.275h3.112v5.275c0 1.239 1.024 2.246 2.27 2.246h.096c1.25 0 2.268-1.009 2.268-2.246v-5.275h2.228c1.145 0 2.082-.924 2.082-2.059V13H7v15.42z"/>
        <path fill-rule="nonzero" d="M22.694 3.362L24.45.59a.386.386 0 0 0-.11-.527.365.365 0 0 0-.516.112l-1.82 2.867a11.647 11.647 0 0 0-4.504-.894c-1.613 0-3.135.322-4.505.894L11.177.175a.369.369 0 0 0-.519-.112.386.386 0 0 0-.11.527l1.758 2.772C9.137 4.95 7 7.942 7 11.375c0 .211.013.419.03.625h20.941c.018-.206.029-.414.029-.625 0-3.433-2.139-6.425-5.306-8.013zM12.645 8.325a1.017 1.017 0 0 1-1.008-1.029c0-.57.452-1.027 1.008-1.027.56 0 1.008.456 1.008 1.027 0 .57-.451 1.029-1.008 1.029zm9.708 0a1.017 1.017 0 0 1-1.008-1.029c0-.57.452-1.027 1.008-1.027.558 0 1.007.456 1.007 1.027 0 .57-.449 1.029-1.007 1.029z"/>
        <path d="M32.041 13h-.081c-1.078 0-1.96.993-1.96 2.203v9.592c0 1.216.883 2.205 1.96 2.205h.083c1.08 0 1.957-.993 1.957-2.205v-9.592c0-1.21-.88-2.203-1.959-2.203z"/>
    </g>
</svg>
