<svg xmlns="http://www.w3.org/2000/svg" width="57" height="59" viewBox="0 0 57 59">
    <defs>
        <linearGradient id="a" x1=".546%" x2="100.511%" y1="49.281%" y2="49.281%">
            <stop offset="0%" stop-color="#E94A53"/>
            <stop offset="100%" stop-color="#F96447"/>
        </linearGradient>
        <linearGradient id="b" x1="-.046%" x2="100.256%" y1="50.096%" y2="50.096%">
            <stop offset="0%" stop-color="#E94A53"/>
            <stop offset="100%" stop-color="#F96447"/>
        </linearGradient>
        <linearGradient id="c" x1="-.119%" x2="100.179%" y1="50.179%" y2="50.179%">
            <stop offset="0%" stop-color="#E94A53"/>
            <stop offset="100%" stop-color="#F96447"/>
        </linearGradient>
        <linearGradient id="d" x1="-.005%" x2="99.993%" y1="50.02%" y2="50.02%">
            <stop offset="0%" stop-color="#E94A53"/>
            <stop offset="100%" stop-color="#F96447"/>
        </linearGradient>
    </defs>
    <g fill="none" fill-rule="evenodd">
        <path fill="url(#a)" d="M19.515 28c.394 0 .788-.153 1.06-.429.273-.275.425-.673.425-1.071 0-.398-.152-.796-.424-1.071a1.506 1.506 0 0 0-1.06-.429c-.395 0-.789.153-1.061.429A1.567 1.567 0 0 0 18 26.5c0 .398.152.796.455 1.071.272.245.666.429 1.06.429z"/>
        <path fill="url(#b)" fill-rule="nonzero" d="M39 42c0 2.216 1.81 4 4 4 2.216 0 4-1.81 4-4 0-2.216-1.81-4-4-4-2.216 0-4 1.784-4 4zm5.351 0c0 .73-.594 1.324-1.324 1.324-.73 0-1.324-.594-1.324-1.324 0-.73.594-1.324 1.324-1.324.73 0 1.324.594 1.324 1.324z"/>
        <path fill="url(#c)" fill-rule="nonzero" d="M36 45c-2.216 0-4 1.81-4 4 0 2.216 1.81 4 4 4 2.216 0 4-1.81 4-4 .027-2.19-1.784-4-4-4zm0 5.351c-.73 0-1.324-.594-1.324-1.324 0-.73.594-1.324 1.324-1.324.73 0 1.324.594 1.324 1.324.027.73-.594 1.324-1.324 1.324z"/>
        <path fill="url(#d)" fill-rule="nonzero" d="M56.634 40.832L40.415 25.156c-.467-.443-1.191-.443-1.635.023-.445.466-.445 1.188.023 1.63l.257.234a38.241 38.241 0 0 1-7.9 13.463l-2.032 2.236c-.047.046-.094.07-.14.07-.094 0-.188-.093-.188-.187V36.22a3.017 3.017 0 0 0 4.066-2.818 3.017 3.017 0 0 0-4.066-2.819V26.95a3.017 3.017 0 0 0 4.066-2.818 3.017 3.017 0 0 0-4.066-2.818v-3.634a3.017 3.017 0 0 0 4.066-2.818 3.017 3.017 0 0 0-4.066-2.819V6.988C28.8 3.144 25.645 0 21.79 0c-1.38 0-2.712.396-3.88 1.165L14.1 3.68a4.222 4.222 0 0 1-2.313.699H8.936c-.187 0-.35.047-.491.116-.023 0-.047.024-.07.024L.593 8.85c-.468.256-.678.792-.561 1.305.14.512.584.861 1.121.861h12.924c.748 0 1.496-.163 2.174-.489l2.687-1.28s.024 0 .024.022v13.044a1.145 1.145 0 0 0 2.29 0v-9.2h1.168a.27.27 0 0 1 .28.28v23.175a.27.27 0 0 1-.28.28h-1.168v-5.31a1.145 1.145 0 0 0-2.29 0v16.187c0 6.22 5.07 11.274 11.31 11.274 3.062 0 6.007-1.258 8.134-3.447l7.127-7.337c2.595-2.656 5.61-4.752 9.021-6.196l.491.466a1.2 1.2 0 0 0 .795.326c.304 0 .607-.117.841-.35.444-.442.42-1.188-.047-1.63zM25.446 16.276h1.018v7.12h-1.018v-7.12zm0 9.155h1.018v7.12h-1.018v-7.12zm4.58 7.12a.51.51 0 0 1 .51.51.51.51 0 0 1-.51.508.51.51 0 0 1-.508-.509.51.51 0 0 1 .509-.508zm0-9.154a.51.51 0 0 1 .51.508.51.51 0 0 1-.51.509.51.51 0 0 1-.508-.509.51.51 0 0 1 .509-.508zm0-9.156a.51.51 0 0 1 .51.509.51.51 0 0 1-.51.509.51.51 0 0 1-.508-.509c0-.271.237-.509.509-.509zM8.144 7.121v1.017H6.107L8.143 7.12zm14.325 3.226h-1.161v-1.53c0-.8-.395-1.507-1.092-1.918a2.343 2.343 0 0 0-2.23-.115L15.336 8.04a2.627 2.627 0 0 1-1.162.274H10.18v-2.01h1.719a6.47 6.47 0 0 0 3.554-1.05l3.764-2.466a4.657 4.657 0 0 1 2.579-.754c2.578 0 4.67 2.056 4.67 4.59v6.6h-1.418v-.342c0-1.393-1.161-2.535-2.579-2.535zM44.05 47.07l-7.144 7.215c-1.687 1.718-4.053 2.68-6.489 2.68-4.99 0-9.042-3.962-9.042-8.842v-8.43h1.171c1.43 0 2.6-1.145 2.6-2.542v-1.993h1.43v7.926c0 1.351 1.124 2.45 2.506 2.45.703 0 1.382-.297 1.85-.8l2.038-2.2c3.49-3.78 6.255-8.246 8.035-13.034L52.93 40.793c-3.303 1.58-6.302 3.665-8.879 6.277z"/>
    </g>
</svg>
