<svg xmlns="http://www.w3.org/2000/svg" width="64" height="42" viewBox="0 0 64 42">
    <defs>
        <linearGradient id="a" x1="0%" y1="50%" y2="50%">
            <stop offset="0%" stop-color="#E94A53"/>
            <stop offset="100%" stop-color="#F96447"/>
        </linearGradient>
        <linearGradient id="b" x1=".196%" x2="100.008%" y1="50.2%" y2="50.2%">
            <stop offset="0%" stop-color="#E94A53"/>
            <stop offset="100%" stop-color="#F96447"/>
        </linearGradient>
        <linearGradient id="c" x1=".022%" x2="99.978%" y1="49.964%" y2="49.964%">
            <stop offset="0%" stop-color="#E94A53"/>
            <stop offset="100%" stop-color="#F96447"/>
        </linearGradient>
        <linearGradient id="d" x1=".051%" x2="99.987%" y1="49.973%" y2="49.973%">
            <stop offset="0%" stop-color="#E94A53"/>
            <stop offset="100%" stop-color="#F96447"/>
        </linearGradient>
        <linearGradient id="e" x1=".55%" x2="99.698%" y1="50.722%" y2="50.722%">
            <stop offset="0%" stop-color="#E94A53"/>
            <stop offset="100%" stop-color="#F96447"/>
        </linearGradient>
        <linearGradient id="f" x1=".244%" x2="99.392%" y1="50.592%" y2="50.592%">
            <stop offset="0%" stop-color="#E94A53"/>
            <stop offset="100%" stop-color="#F96447"/>
        </linearGradient>
    </defs>
    <g fill="none" fill-rule="evenodd">
        <path fill="url(#a)" d="M60.843 1h-5.184c-.683 0-1.259.56-1.259 1.27 0 .709.555 1.268 1.259 1.268h5.184c.362 0 .661.301.661.667v34.633a.667.667 0 0 1-.661.667H3.157a.667.667 0 0 1-.661-.667V4.205c0-.366.299-.667.661-.667h42.624c.683 0 1.259-.559 1.259-1.269 0-.71-.555-1.269-1.259-1.269H3.157C1.408 1 0 2.441 0 4.184v34.632A3.163 3.163 0 0 0 3.157 42h57.686C62.592 42 64 40.58 64 38.816V4.184C64 2.44 62.592 1 60.843 1z"/>
        <path fill="url(#b)" fill-rule="nonzero" d="M48.33 13h6.34c.721 0 1.33-.565 1.33-1.283V7.283C56 6.587 55.414 6 54.67 6h-6.34C47.61 6 47 6.565 47 7.283v4.434A1.325 1.325 0 0 0 48.33 13zm1.332-4.435h3.699v1.892h-3.7V8.565z"/>
        <path fill="url(#c)" fill-rule="nonzero" d="M6.255 15C5.575 15 5 15.587 5 16.332v20.336C5 37.391 5.553 38 6.255 38h51.49c.68 0 1.255-.587 1.255-1.332V16.332c0-.723-.553-1.332-1.255-1.332H6.255zm43.809 11.444h-1.787V17.64h1.787v8.803zm-3.043 2.64h.894v6.253H41.83V17.64h3.936v10.112c0 .745.553 1.331 1.255 1.331zm-7.68 6.253h-6.086v-6.253h.894c.68 0 1.255-.586 1.255-1.331V17.64h3.936v17.696zm-23.596-8.893h-1.788V17.64h1.788v8.803zm1.234 2.64c.68 0 1.255-.586 1.255-1.331V17.64h1.787v10.112c0 .722.553 1.331 1.256 1.331h.893v6.253h-6.085v-6.253h.894zm7.34-2.64h-1.787V17.64h1.787v8.803zm.34 2.64h.894c.681 0 1.256-.586 1.256-1.331V17.64h1.787v10.112c0 .722.553 1.331 1.255 1.331h.894v6.253H24.66v-6.253zm8.235-2.64h-1.788V17.64h1.788v8.803zM7.51 17.64h3.936v10.112c0 .722.553 1.331 1.255 1.331h.894v6.253H7.51V17.64zm48.978 17.696h-6.085v-6.253h.894c.68 0 1.255-.586 1.255-1.331V17.64h3.936v17.696z"/>
        <path fill="url(#d)" fill-rule="nonzero" d="M44.746 12.98c.68 0 1.254-.525 1.254-1.192V8.192C46 7.545 45.447 7 44.746 7H16.418c-.68 0-1.254.525-1.254 1.192v2.424h-3.91c-.68 0-1.254.525-1.254 1.192 0 .647.553 1.192 1.254 1.192l33.492-.02zM17.672 9.384h25.842v1.252H17.672V9.384z"/>
        <path fill="url(#e)" d="M7.463 12h.074C8.331 12 9 11.339 9 10.5 9 9.686 8.355 9 7.537 9h-.074C6.669 9 6 9.661 6 10.5c.025.839.67 1.5 1.463 1.5z"/>
        <path fill="url(#f)" d="M49.463 3h.074C50.331 3 51 2.339 51 1.5S50.355 0 49.537 0h-.074C48.669 0 48 .661 48 1.5S48.67 3 49.463 3z"/>
    </g>
</svg>
