<svg xmlns="http://www.w3.org/2000/svg" width="47" height="70" viewBox="0 0 47 70">
    <defs>
        <filter id="a" width="227.8%" height="192%" x="-63.9%" y="-46%" filterUnits="objectBoundingBox">
            <feOffset dy="2" in="SourceAlpha" result="shadowOffsetOuter1"/>
            <feGaussianBlur in="shadowOffsetOuter1" result="shadowBlurOuter1" stdDeviation="5"/>
            <feColorMatrix in="shadowBlurOuter1" result="shadowMatrixOuter1" values="0 0 0 0 0.196078431 0 0 0 0 0.356862745 0 0 0 0 0.498039216 0 0 0 0.270748415 0"/>
            <feMerge>
                <feMergeNode in="shadowMatrixOuter1"/>
                <feMergeNode in="SourceGraphic"/>
            </feMerge>
        </filter>
    </defs>
    <g fill="#2A3042" fill-rule="evenodd" filter="url(#a)" transform="rotate(-30 33.062 21.036)">
        <path d="M23.083 1.857L23 2c.292-.5.625-.857 1-1-.333.071-.625.357-.917.857zM25 1c.364.23.682.538 1 1-.318-.462-.636-.77-1-1zM24.05.4c.3 0 .6.1.9.2-.3-.1-.6-.1-.9-.2zM24.4.5h-.1.4-.3zM33.243 15c.757 0 1.406-.212 1.946-.742S36 13.144 36 12.402c0-.743-.216-1.38-.757-1.91L31.73 6.886 26 1c.54.477.703 1.167.703 1.91v6.522l1.08 1.113 3.514 3.607c.54.583 1.19.848 1.946.848z"/>
        <path d="M26.34 1.748c-.3-.3-.652-.549-1.103-.648h-.05c-.151-.05-.302-.05-.452-.1h-.251-.602c-.452.1-.853.349-1.204.698-.05.05-.05.1-.1.1-.402.448-.603.997-.603 1.645v22.68c-2.458-1.944-5.268-2.94-8.479-2.94-3.712 0-6.923 1.295-9.532 3.937C1.304 29.762 0 32.902 0 36.591s1.304 6.879 3.964 9.471C6.623 48.704 9.784 50 13.496 50c3.713 0 6.874-1.296 9.533-3.938 2.66-2.592 3.964-5.732 3.964-9.471V3.593c.05-.749-.151-1.347-.653-1.845z"/>
    </g>
</svg>
