<svg xmlns="http://www.w3.org/2000/svg" width="44" height="68" viewBox="0 0 44 68">
    <defs>
        <filter id="b" width="110.9%" height="112.6%" x="-5.5%" y="-6.3%" filterUnits="objectBoundingBox">
            <feOffset dy="2" in="SourceAlpha" result="shadowOffsetOuter1"/>
            <feGaussianBlur in="shadowOffsetOuter1" result="shadowBlurOuter1" stdDeviation="2"/>
            <feColorMatrix in="shadowBlurOuter1" result="shadowMatrixOuter1" values="0 0 0 0 0 0 0 0 0 0 0 0 0 0 0 0 0 0 0.5 0"/>
            <feMerge>
                <feMergeNode in="shadowMatrixOuter1"/>
                <feMergeNode in="SourceGraphic"/>
            </feMerge>
        </filter>
        <linearGradient id="a" x1="0%" y1="50%" y2="50%">
            <stop offset="0%" stop-color="#E94A53"/>
            <stop offset="100%" stop-color="#F96447"/>
        </linearGradient>
    </defs>
    <g fill="url(#a)" fill-rule="evenodd" filter="url(#b)" transform="translate(-87 -35)">
        <path d="M109.5 56c-.844 0-1.5.656-1.5 1.5a1.5 1.5 0 0 0 1.5 1.5c.813 0 1.5-.688 1.5-1.5a1.5 1.5 0 0 0-1.5-1.5z"/>
        <path fill-rule="nonzero" d="M123.4 56.455h-1.2V45.202c0-4.516-3.775-8.202-8.4-8.202h-9.6c-4.625 0-8.4 3.686-8.4 8.202v11.253h-1.2c-1.975 0-3.6 1.586-3.6 3.515v9.373c0 7.104 5.9 12.889 13.2 12.889h1.2v7.738h-1.2c-3.325 0-6 2.612-6 5.858 0 .66.525 1.172 1.2 1.172h19.2c.675 0 1.2-.513 1.2-1.172 0-3.222-2.7-5.858-6-5.858h-1.2v-7.738h1.2c7.25 0 13.2-5.76 13.2-12.889V59.97c0-1.929-1.625-3.515-3.6-3.515zm-25.2 9.373h6c.675 0 1.2-.512 1.2-1.171 0-.66-.525-1.172-1.2-1.172h-6v-4.687h6c.675 0 1.2-.512 1.2-1.171 0-.66-.525-1.172-1.2-1.172h-6v-5.029h6c.675 0 1.2-.512 1.2-1.171 0-.66-.525-1.172-1.2-1.172h-6v-3.881c0-2.832 2.075-5.2 4.8-5.737v3.393c0 .66.525 1.172 1.2 1.172.675 0 1.2-.513 1.2-1.172v-3.515h2.4v3.515c0 .66.525 1.172 1.2 1.172.675 0 1.2-.513 1.2-1.172v-3.515h2.4v3.515c0 .66.525 1.172 1.2 1.172.675 0 1.2-.513 1.2-1.172v-3.393c2.725.537 4.8 2.905 4.8 5.737v3.857h-6c-.675 0-1.2.512-1.2 1.171 0 .66.525 1.172 1.2 1.172h6v5.028h-6c-.675 0-1.2.513-1.2 1.172 0 .66.525 1.172 1.2 1.172h6v4.687h-6c-.675 0-1.2.512-1.2 1.171 0 .66.525 1.172 1.2 1.172h6v3.515c0 2.832-2.075 5.2-4.8 5.736v-3.393c0-.659-.525-1.171-1.2-1.171-.675 0-1.2.512-1.2 1.171v3.515h-2.4v-3.515c0-.659-.525-1.171-1.2-1.171-.675 0-1.2.512-1.2 1.171v3.515h-2.4v-3.515c0-.659-.525-1.171-1.2-1.171-.675 0-1.2.512-1.2 1.171v3.393c-2.725-.537-4.8-2.904-4.8-5.736v-3.49zm15.6 26.485a3.6 3.6 0 0 1 3.4 2.344h-16.4c.475-1.343 1.8-2.344 3.4-2.344h9.6zm-6-2.343v-7.738h2.4v7.738h-2.4zm16.8-20.627c0 5.81-4.825 10.546-10.8 10.546h-9.6c-5.95 0-10.8-4.712-10.8-10.546V59.97c0-.635.55-1.172 1.2-1.172h1.2v10.545c0 4.516 3.775 8.202 8.4 8.202h9.6c4.625 0 8.4-3.686 8.4-8.202V58.798h1.2c.65 0 1.2.537 1.2 1.172v9.373z"/>
    </g>
</svg>
