<svg xmlns="http://www.w3.org/2000/svg" width="200" height="50" viewBox="0 0 200 50">
    <g fill="none" fill-rule="evenodd">
        <g fill="#2E4255">
            <path d="M34.7 26c-.95-.95-2.1-1.75-3.4-2.3-1.3-.55-2.7-.85-4.15-.85-3.25 0-5.95 1.25-8.2 3.8-1.05-1.3-2.3-2.25-3.7-2.85-1.4-.65-2.9-.95-4.5-.95-2.2 0-4.15.55-5.85 1.7-.15-.5-.45-.95-.9-1.25-.45-.3-.95-.45-1.5-.45-.7 0-1.3.25-1.75.75-.5.5-.75 1.1-.75 1.75v21.9c0 .7.25 1.3.75 1.8s1.1.75 1.8.75 1.3-.25 1.75-.75c.5-.5.75-1.1.75-1.8V33.6c0-.8.15-1.5.45-2.2.3-.7.7-1.3 1.25-1.8.5-.5 1.15-.95 1.8-1.25.7-.3 1.45-.45 2.2-.45.8 0 1.5.15 2.2.45.7.3 1.3.7 1.8 1.25.5.5.9 1.1 1.25 1.8.3.7.45 1.45.45 2.2v13.7c0 .7.25 1.3.75 1.8s1.1.75 1.8.75 1.3-.25 1.75-.75c.5-.5.75-1.1.75-1.8V33.6c0-.8.15-1.5.45-2.2.3-.7.7-1.3 1.25-1.8.5-.5 1.15-.9 1.8-1.25.7-.3 1.45-.45 2.2-.45.8 0 1.55.15 2.25.45.7.3 1.3.7 1.8 1.25.5.5.9 1.15 1.2 1.8.3.7.45 1.4.45 2.2v13.7c0 .7.25 1.3.7 1.8.5.5 1.05.75 1.8.75.7 0 1.3-.25 1.75-.75.5-.5.75-1.1.75-1.8V33.6c0-1.45-.3-2.85-.85-4.15-.6-1.3-1.4-2.45-2.35-3.45zM63.2 22.85c-.7 0-1.3.25-1.8.75s-.75 1.1-.75 1.75v11.9c0 1.05-.2 2-.6 2.9-.4.9-.95 1.7-1.6 2.4-.7.7-1.5 1.25-2.4 1.6-.9.4-1.9.6-2.9.6-1.05 0-2-.2-2.95-.6-.9-.4-1.7-.95-2.4-1.6-.7-.7-1.2-1.5-1.6-2.4-.4-.9-.6-1.9-.6-2.95V25.35c0-.7-.25-1.3-.75-1.75-.5-.5-1.1-.75-1.75-.75-.7 0-1.3.25-1.8.75s-.75 1.1-.75 1.75v11.9c0 1.7.35 3.35 1 4.85.65 1.5 1.55 2.85 2.7 4 1.15 1.15 2.45 2.05 4 2.7 1.5.65 3.15 1 4.85 1 1.45 0 2.8-.2 4-.6 1.25-.4 2.4-1 3.5-1.9 0 .7.25 1.25.7 1.75.45.5 1.05.7 1.8.7.7 0 1.3-.25 1.8-.75s.75-1.1.75-1.75v-21.9c0-.7-.25-1.3-.75-1.75-.4-.5-1-.75-1.7-.75zM88.35 37.5c-.55-.6-1.6-1.15-3.15-1.8L73.95 32c-.4-.15-.65-.45-.65-.9s.15-.8.4-1.05c1.4-1.4 3.2-2.1 5.55-2.1 2.35 0 4.35.8 5.95 2.45.35.35.7.65 1.05.95.35.3.8.45 1.3.45.7 0 1.3-.25 1.8-.7.45-.45.7-1.05.7-1.8 0-.6-.15-1.1-.5-1.5-2.85-3.2-6.3-4.85-10.3-4.85-1.3 0-2.6.2-3.95.55-1.3.4-2.5.9-3.5 1.6-1.05.7-1.9 1.55-2.55 2.5-.65 1-.95 2.1-.95 3.3 0 1.65.6 3.1 1.85 4.35.6.6 1.65 1.2 3.15 1.8l11.25 3.7c.45.2.65.5.65.95 0 .4-.1.7-.35 1-1.4 1.45-3.25 2.15-5.55 2.15-2.35 0-4.35-.8-6-2.45-.3-.3-.65-.6-1-.9-.35-.3-.8-.45-1.35-.45-.7 0-1.3.25-1.8.7-.45.45-.7 1.05-.7 1.8 0 .6.2 1.1.55 1.55 2.85 3.2 6.25 4.8 10.3 4.8 1.3 0 2.6-.2 3.9-.55 1.3-.35 2.45-.9 3.5-1.6 1.05-.7 1.9-1.55 2.55-2.5.65-1 .95-2.1.95-3.3-.05-1.8-.65-3.25-1.85-4.45zM95.25 15.15c-.8 0-1.5.3-2.1.85-.6.6-.85 1.25-.85 2.1 0 .8.3 1.5.85 2.1.6.6 1.25.85 2.1.85.8 0 1.5-.3 2.1-.85.6-.6.85-1.25.85-2.1 0-.8-.3-1.5-.85-2.1-.55-.55-1.25-.85-2.1-.85zM95.25 22.9c-.7 0-1.3.25-1.75.75-.5.5-.75 1.1-.75 1.8v21.9c0 .7.25 1.3.75 1.8s1.1.75 1.75.75c.7 0 1.3-.25 1.75-.75.5-.5.75-1.1.75-1.8V25.4c0-.7-.25-1.3-.75-1.8-.45-.45-1.05-.7-1.75-.7zM107.9 30.4c.75-.75 1.65-1.35 2.7-1.8 1.05-.45 2.1-.65 3.3-.65 1.05 0 2.05.2 2.95.55.9.35 1.75.85 2.55 1.55.5.4 1.05.6 1.65.6.7 0 1.3-.25 1.8-.7.45-.5.7-1.1.7-1.8 0-.75-.3-1.4-.85-1.9-2.45-2.2-5.4-3.25-8.8-3.25-3.7 0-6.9 1.3-9.5 3.95-2.65 2.65-3.95 5.8-3.95 9.5s1.3 6.9 3.95 9.5c2.65 2.65 5.8 3.95 9.5 3.95 3.35 0 6.3-1.1 8.8-3.25.55-.55.8-1.15.8-1.85 0-.7-.25-1.3-.7-1.8-.45-.45-1.05-.7-1.8-.7-.6 0-1.15.2-1.6.55-.8.7-1.65 1.2-2.55 1.55-.9.35-1.9.5-2.95.5-1.15 0-2.25-.2-3.3-.65-1.05-.45-1.9-1.05-2.7-1.8-.75-.75-1.35-1.65-1.8-2.7-.45-1.05-.65-2.1-.65-3.3 0-1.15.2-2.25.65-3.3.45-1.1 1.05-2 1.8-2.75z"/>
        </g>
        <path fill="#C62D44" d="M148.95 1.2l-.1.1c.35-.35.75-.6 1.2-.7-.4.05-.75.25-1.1.6zM151.45.6zM150.95.5c.15 0 .3.05.45.1-.15-.05-.3-.05-.45-.1zM150.75.5h-.05.2-.15zM159.2 14.45c.7 0 1.3-.2 1.8-.7.5-.5.75-1.05.75-1.75s-.2-1.3-.7-1.8l-3.25-3.4-5.3-5.55c.5.45.65 1.1.65 1.8V9.2l1 1.05 3.25 3.4c.5.55 1.1.8 1.8.8z"/>
        <path fill="#E93D50" d="M152.5 1.25c-.3-.3-.65-.55-1.1-.65h-.05c-.15-.05-.3-.05-.45-.1h-.85c-.45.1-.85.35-1.2.7-.05.05-.05.1-.1.1-.4.45-.6 1-.6 1.65V25.7c-2.45-1.95-5.25-2.95-8.45-2.95-3.7 0-6.9 1.3-9.5 3.95-2.65 2.65-3.95 5.8-3.95 9.5s1.3 6.9 3.95 9.5c2.65 2.65 5.8 3.95 9.5 3.95s6.85-1.3 9.5-3.95c2.65-2.6 3.95-5.75 3.95-9.5V3.1c.05-.75-.15-1.35-.65-1.85zM178.7 26.85c-2.65-2.65-5.85-3.95-9.5-3.95-3.7 0-6.9 1.3-9.5 3.95-2.65 2.65-3.95 5.8-3.95 9.5s1.3 6.9 3.95 9.5c2.65 2.65 5.8 3.95 9.5 3.95s6.85-1.3 9.5-3.95c2.65-2.6 3.95-5.75 3.95-9.5 0-1.85-.35-3.6-1-5.15-.65-1.6-1.65-3.05-2.95-4.35zM199.3 45.5c-.5-.5-1.05-.75-1.75-.75-3.2 0-4.8-1.6-4.8-4.8V27.9h3c.7 0 1.25-.25 1.75-.75s.7-1.1.7-1.8-.25-1.3-.7-1.75c-.5-.5-1.05-.75-1.75-.75h-3V13.8c0-.7-.25-1.3-.75-1.75-.5-.5-1.1-.75-1.75-.75-.7 0-1.3.25-1.8.75s-.75 1.1-.75 1.75v9.05h-3c-.7 0-1.25.25-1.75.75s-.7 1.1-.7 1.75c0 .7.25 1.3.7 1.8.5.5 1.05.75 1.75.75h3V40c0 6.55 3.3 9.8 9.85 9.8.7 0 1.25-.25 1.75-.75s.7-1.1.7-1.8-.25-1.25-.7-1.75z"/>
    </g>
</svg>
