<svg xmlns="http://www.w3.org/2000/svg" width="42" height="41" viewBox="0 0 42 41">
    <g fill="#E93D50" fill-rule="evenodd">
        <path d="M31.5 21.274c0 1.66-.21 3.318-.21 3.318s-.205 1.412-.835 2.035c-.798.816-1.693.82-2.104.867-2.938.208-7.351.214-7.351.214s-5.46-.048-7.14-.205c-.467-.086-1.517-.06-2.315-.876-.63-.623-.835-2.035-.835-2.035s-.21-1.659-.21-3.318v-1.556c0-1.659.21-3.317.21-3.317s.205-1.413.835-2.036c.798-.816 1.693-.82 2.104-.867 2.938-.208 7.347-.208 7.347-.208h.008s4.409 0 7.347.208c.411.047 1.306.051 2.104.867.63.623.835 2.036.835 2.036s.21 1.658.21 3.317v1.556zM21 0C9.401 0 0 9.178 0 20.5 0 31.821 9.401 41 21 41s21-9.179 21-20.5C42 9.178 32.599 0 21 0z"/>
        <path d="M18.001 23.429L24 20.51l-6-2.939z"/>
    </g>
</svg>
