<svg xmlns="http://www.w3.org/2000/svg" width="48" height="59" viewBox="0 0 48 59">
    <defs>
        <linearGradient id="a" x1=".12%" x2="99.88%" y1="50.112%" y2="50.112%">
            <stop offset="0%" stop-color="#E94A53"/>
            <stop offset="100%" stop-color="#F96447"/>
        </linearGradient>
        <linearGradient id="b" x1=".36%" x2="100.12%" y1="49.871%" y2="49.871%">
            <stop offset="0%" stop-color="#E94A53"/>
            <stop offset="100%" stop-color="#F96447"/>
        </linearGradient>
        <linearGradient id="c" x1=".2%" x2="99.96%" y1="49.871%" y2="49.871%">
            <stop offset="0%" stop-color="#E94A53"/>
            <stop offset="100%" stop-color="#F96447"/>
        </linearGradient>
        <linearGradient id="d" x1=".2%" x2="99.96%" y1="50.112%" y2="50.112%">
            <stop offset="0%" stop-color="#E94A53"/>
            <stop offset="100%" stop-color="#F96447"/>
        </linearGradient>
        <linearGradient id="e" x1=".36%" x2="100.12%" y1="50.112%" y2="50.112%">
            <stop offset="0%" stop-color="#E94A53"/>
            <stop offset="100%" stop-color="#F96447"/>
        </linearGradient>
        <linearGradient id="f" x1=".029%" x2="99.971%" y1="50.002%" y2="50.002%">
            <stop offset="0%" stop-color="#E94A53"/>
            <stop offset="100%" stop-color="#F96447"/>
        </linearGradient>
    </defs>
    <g fill="none" fill-rule="evenodd">
        <path fill="url(#a)" d="M24 7c-.558 0-1 .442-1 1s.442 1 1 1 1-.442 1-1-.442-1-1-1z"/>
        <path fill="url(#b)" d="M19.833 10h-4.666c-.651 0-1.167.442-1.167 1s.516 1 1.167 1h4.666c.651 0 1.167-.442 1.167-1s-.516-1-1.167-1z"/>
        <path fill="url(#c)" d="M32.833 10h-4.666c-.651 0-1.167.442-1.167 1s.516 1 1.167 1h4.666c.651 0 1.167-.442 1.167-1s-.516-1-1.167-1z"/>
        <path fill="url(#d)" d="M32.833 16h-4.666c-.651 0-1.167.442-1.167 1s.516 1 1.167 1h4.666c.651 0 1.167-.442 1.167-1s-.516-1-1.167-1z"/>
        <path fill="url(#e)" d="M19.42 16.147h-4.58c-.638 0-1.145.51-1.145 1.154 0 .643.507 1.153 1.145 1.153h4.58c.639 0 1.145-.51 1.145-1.153s-.506-1.154-1.145-1.154z"/>
        <path fill="url(#f)" fill-rule="nonzero" d="M46.855 30.653H45.71v-20.25c0-1.908-1.541-3.46-3.435-3.46H38.84V1.951c0-.488-.308-.932-.77-1.087a15.909 15.909 0 0 0-7.134-.688C26.95.732 24.088 2.84 24 2.883c-.154-.066-3.7-2.839-9.028-2.839-1.607 0-3.192.244-4.711.732C9.644.798 9.16 1.31 9.16 1.93v5.035H5.725c-1.894 0-3.435 1.552-3.435 3.46v20.25H1.145c-.639 0-1.145.51-1.145 1.154 0 .643.506 1.153 1.145 1.153h21.71V43.54L9.49 57.004a1.157 1.157 0 0 0 0 1.619c.44.444 1.167.444 1.607 0l11.758-11.844v11.023c0 .643.506 1.154 1.145 1.154s1.145-.51 1.145-1.154V46.78l11.758 11.844c.44.444 1.167.444 1.607 0 .44-.444.44-1.176 0-1.62L25.145 43.54V32.982h21.71c.639 0 1.145-.51 1.145-1.153s-.528-1.176-1.145-1.176zm-24 0H4.58v-20.25c0-.644.506-1.154 1.145-1.154H9.16v17.944c0 .377.176.71.484.932a1.15 1.15 0 0 0 1.035.155c4.03-1.353 8.345-.776 11.868 1.597l.33.222v.554h-.022zM24 11.556c-.639 0-1.145.51-1.145 1.153v14.706a15.875 15.875 0 0 0-11.427-1.708V2.817a13.48 13.48 0 0 1 3.522-.466c4.977 0 7.927 2.64 8.411 2.861.375.267.881.267 1.278 0 .352-.155 5.042-4.28 11.933-2.395v22.868c-4.007-.91-8.036-.222-11.427 1.708V12.709c0-.643-.506-1.153-1.145-1.153zm19.42 19.097H25.145v-.532l.33-.222a13.425 13.425 0 0 1 11.868-1.597c.352.111.727.067 1.035-.155a1.13 1.13 0 0 0 .484-.932V9.25h3.413c.639 0 1.145.51 1.145 1.154v20.25z"/>
    </g>
</svg>
