<svg xmlns="http://www.w3.org/2000/svg" width="130" height="127" viewBox="0 0 130 127">
    <defs>
        <linearGradient id="a" x1="97.828%" x2="8.233%" y1="28.697%" y2="76.013%">
            <stop offset="0%" stop-color="#F76148"/>
            <stop offset="100%" stop-color="#EE4E4E"/>
        </linearGradient>
        <linearGradient id="b" x1=".04%" x2="100.017%" y1="50.036%" y2="50.036%">
            <stop offset="0%" stop-color="#00B4DB"/>
            <stop offset="100%" stop-color="#0083B0"/>
        </linearGradient>
    </defs>
    <g fill="none" fill-rule="evenodd">
        <path fill="#384652" d="M83 108.966c.308.603.77 1.034 1.385 1.034.461 0 .846-.259 1.153-.603.308-.345.462-.863.462-1.38 0-.69 0-1.38-.077-2.155-.154-.086-.385-.086-.538-.172l-1.77-.69-.307 2.328a15.492 15.492 0 0 1-.308 1.638"/>
        <path fill="url(#a)" d="M18.232 97.409c-23.012-3.324-2.936-40.287 18.251-56.433 18.41-14.088 52.372-5.699 63.006 14.96 10.633 20.657 1.904 62.922-20.235 69.966-23.012 7.203-24.44-23.19-61.022-28.493z"/>
        <path fill="#384652" d="M54.239 85.078c-.16 9.68-.239 17.563-.239 20.217C54 114.506 60.844 122 69.279 122c6.923 0 12.89-5.152 14.721-12.255l-.557-.625c-.318.312-.716.547-1.194.547-.636 0-1.193-.39-1.512-1.015-1.432 5.542-6.047 9.523-11.379 9.523-6.525 0-11.857-5.776-11.857-12.958 0-1.56 0-4.761.08-9.055-.716-.234-1.194-.936-1.194-1.795 0-.859.557-1.561 1.273-1.795 0-1.796.08-3.669.08-5.62h-.398c-.398 0-.875 0-1.273-.079-.875-.078-1.592-.936-1.592-1.873h-.238v.078zM54 85h.154v-.16c.077-1.033.923-1.828 1.846-1.749.462.08.923.08 1.385 0 .077-5.328.153-11.054.23-16.78.154-10.02.308-19.722.385-26.402h-1.154c-.923 0-1.692-.875-1.692-1.909h-.462c-.077 6.68-.23 17.257-.384 28.232C54.154 72.673 54.077 79.195 54 85"/>
        <path fill="#384652" d="M55 83.762v.166c0 .994.571 1.906 1.429 1.99.428.082.785.082 1.142.082h.358c0-1.326 0-2.653.071-3.979h-1.286c-.857-.166-1.643.663-1.714 1.74M55.158 38.128h.475c0-1.037.79-1.914 1.74-1.914h1.265V31.83c0-6.06 4.43-11.082 9.808-11.082 5.458 0 9.808 4.943 9.808 11.082 0 .479-.079.957-.158 1.595l-.158 1.036c.316-.478.79-.877 1.424-.877.87 0 1.582.718 1.74 1.674.87-.319 1.819-.398 2.689-.398 5.458 0 9.808 4.943 9.808 11.082 0 1.515-.237 2.95-.791 4.305.712 0 1.345.478 1.582 1.276.079.16.079.319.079.478l1.424-.16A16.611 16.611 0 0 0 97 45.94c0-8.211-5.932-14.908-13.288-14.908-.712 0-1.424.08-2.136.24C81.26 23.377 75.406 17 68.288 17 60.932 17 55 23.697 55 31.909c.237.957.237 3.189.158 6.219"/>
        <path fill="#384652" d="M56.737 36c-.948 0-1.737.917-1.737 2s.79 2 1.737 2h1.184c0-1.5 0-2.833.079-4h-1.263zM58 92c-.563.26-1 1.043-1 2 0 .957.375 1.74.938 2C58 94.783 58 93.478 58 92"/>
        <path fill="#384652" d="M57.083 92.151c0 1.21 0 2.42-.083 3.48.166.075.331.075.58.075a6.36 6.36 0 0 1 5.96 4.16c.25.756.994 1.134 1.657 1.134.248 0 .414-.076.662-.151.91-.378 1.407-1.437.993-2.345C65.362 94.571 61.636 92 57.497 92a.665.665 0 0 1-.414.151M58.077 82.264c0 1.323-.077 2.569-.077 3.736 3.83-.078 7.432-2.101 9.96-5.525 3.371-4.67 3.984-11.051 1.61-16.421-.384-.934-1.456-1.323-2.223-.856-.842.467-1.149 1.634-.69 2.568 1.763 3.969 1.303 8.872-1.225 12.296-1.916 2.568-4.52 4.047-7.355 4.202M58 40h9.18c.993 0 1.82-.917 1.82-2s-.827-2-1.82-2h-9.097C58 37.083 58 38.5 58 40M75.313 94.855c-.574.871-.328 2.059.491 2.693 2.95 2.138 4.754 5.7 4.754 9.581 0 .317.082.633.246.871.164-.475.246-1.03.328-1.584l.327-2.217 1.967.713c.164.079.41.158.574.158-.574-4.355-2.787-8.235-6.147-10.69-.901-.633-1.967-.475-2.54.475M77.147 84.234c-.379.979 0 2.201.834 2.61.834.407 1.819 0 2.198-.98 1.288-3.505 3.865-5.95 6.821-6.766l-.227-.978c-.152.081-.304.081-.455.081-.682 0-1.289-.489-1.516-1.223-.076-.326-.227-.652-.379-.978-3.183 1.386-5.836 4.32-7.276 8.234M78 46.82v.448c0 1.493.755 2.91 1.887 3.732.453-.821.83-1.717 1.056-2.687a1.8 1.8 0 0 0 0-.896c-.15-.597-.528-1.12-1.132-1.343-.603-.224-1.358.074-1.811.746"/>
        <path fill="#384652" d="M78 35.037v11.325c.349-.718 1.047-1.037 1.674-.798.559.24.907.798 1.047 1.436l.279-.08V35.037v-.24l-.628.24L78 36.153 78.28 34c-.14.319-.28.638-.28 1.037"/>
        <path fill="#384652" d="M78.28 33.868L78 36l2.372-1.105.628-.237C80.93 33.71 80.233 33 79.465 33c-.418 0-.907.316-1.186.868zM79.667 69c-.91 0-1.667.846-1.667 1.846s.758 1.846 1.667 1.846c2.12 0 4.015 1.308 5.075 3.308 1.061-.462 2.122-.77 3.258-.923C86.56 71.462 83.303 69 79.667 69M81.131 47.968A11.428 11.428 0 0 1 80 50.87c.889.645 2.02 1.129 3.152 1.129h3.07c.97 0 1.778-.887 1.778-1.935 0-1.049-.808-1.936-1.778-1.936h-3.07c-.89 0-1.617-.564-1.697-1.129l-.324.08c.162.243.081.565 0 .888M84 109.042l.551.639c1.024.24 2.126.319 3.15.319C96.677 110 104 101.694 104 91.552c0-1.517-.157-3.035-.472-4.552.157 1.038.315 2.076.315 3.115 0 1.038-.788 1.916-1.733 1.916-.63 0-1.18-.4-1.496-.958v.48c0 8.065-5.827 14.614-12.913 14.614-1.103 0-2.284-.16-3.386-.48.079.64.157 1.358.157 2.077 0 .48-.157.958-.472 1.278"/>
        <path fill="#384652" d="M84 75.975c.171.3.342.6.428.9.256.75 1.026 1.125 1.71 1.125.17 0 .342 0 .513-.075.085 0 .085 0 .17-.075.941-.375 1.454-1.425 1.027-2.325-.086-.15-.171-.375-.257-.525-1.111.225-2.394.525-3.591.975"/>
        <path fill="#384652" d="M87 77.417l.234 1c.782-.167 1.485-.334 2.266-.334 2.969 0 5.625 1.5 7.5 3.917-.313-.5-.703-1-1.094-1.417l-1.64-1.833 1.875-1.417c.312-.25.546-.416.859-.666C94.89 75 92.312 74 89.578 74c-.547 0-1.094 0-1.562.083.078.167.156.334.234.584.313 1.083-.078 2.25-.938 2.583-.234.167-.312.167-.312.167M92.359 51.527L91 53.564l1.613.436c.34-.218.764-.364 1.189-.582.764-.29 1.274-1.018 1.189-1.818 0-.145-.085-.29-.085-.436-.255-.655-.934-1.091-1.698-1.164-.255.51-.51 1.018-.85 1.527"/>
        <path fill="#384652" d="M91 54.56l.74.233c5.184 1.474 8.722 6.362 8.722 11.948 0 3.957-1.728 7.526-4.69 9.854A15.53 15.53 0 0 1 98.487 79c3.456-3.026 5.513-7.448 5.513-12.259 0-6.517-3.703-12.258-9.297-14.741l-1.481.155c.082.776-.412 1.552-1.07 1.862-.411.155-.823.31-1.152.543M93 78.877l1.651 1.643c.413.39.826.86 1.156 1.25 1.239 1.409 2.147 3.13 2.477 5.007.248 1.095.413 2.19.496 3.284.33.548.826.939 1.486.939.99 0 1.734-.782 1.734-1.799s-.083-1.955-.248-2.894c-.578-2.503-1.734-4.849-3.302-6.882A15.608 15.608 0 0 0 95.725 77c-.248.235-.578.391-.826.626L93 78.877z"/>
        <path fill="#384652" d="M96 82c.933 1.484 1.667 3.203 2 5-.333-1.875-1-3.594-2-5M99 79a19.232 19.232 0 0 1 3 7 16.193 16.193 0 0 0-3-7M98.2 87c.2.714.3 1.429.3 2.214 0 .286.1.572.3.786 0-1-.2-2-.6-3"/>
        <g fill="#2A3042">
            <path fill-rule="nonzero" d="M51.44 84.895c-.08-5.842-.16-12.237-.24-18.632-.16-10.895-.32-21.474-.4-28.026 0-3-.08-5.21-.08-6.237 0-8.132-6-14.763-13.44-14.763-7.2 0-13.12 6.316-13.44 14.131-.72-.157-1.44-.236-2.16-.236-7.44 0-13.44 6.631-13.44 14.763 0 2.052.4 4.026 1.12 5.842C3.76 54.342 0 60.42 0 67.289c0 5.053 2 9.79 5.52 12.948.8-.948 1.68-1.816 2.72-2.526-3.04-2.448-4.8-6.316-4.8-10.422 0-5.92 3.6-11.131 8.88-12.631l.8-.237c2.16 1.421 3.52 3.947 3.6 6.79 0 1.026.8 1.894 1.76 1.894s1.76-.868 1.76-1.894c-.08-4.816-2.88-9.237-6.96-10.895-.32-.08-.48-.158-.72-.158-.56-1.342-.8-2.763-.8-4.263 0-6 4.48-10.974 9.92-10.974.88 0 1.84.158 2.72.395.08-.948.88-1.658 1.76-1.658-.16 0-.32 0-.4.079-.16.079-.32.079-.48.237l-.24.237c-.24.236-.4.473-.48.868 0 .079-.08.237-.08.316v12c-.08.552-.72 1.105-1.68 1.105h-3.04c-.96 0-1.76.868-1.76 1.895 0 1.026.8 1.894 1.76 1.894h3.04c1.2 0 2.32-.394 3.12-1.105 1.92 3.632 5.44 6 9.28 6.316h.16c.88 0 1.68-.79 1.76-1.816.08-1.026-.64-1.973-1.6-2.052-3.44-.237-6.4-2.843-7.36-6.474l-.24-.474V35.632c0-.395-.08-.79-.32-1.027l.32 2.132-.32-2.132-.16-1.026c-.08-.632-.16-1.105-.16-1.579 0-6 4.48-10.974 9.92-10.974 5.6 0 10 4.895 10 10.974v4.342c0 .869 0 1.895.08 2.921 0-1.105 0-2.052-.08-2.92h-8.8c-.96 0-1.76.868-1.76 1.894 0 1.026.8 1.895 1.76 1.895h8.88c.08 6.631.24 16.263.4 26.21.08 5.684.16 11.369.24 16.658-2.96-.158-5.76-1.658-7.6-4.184-2.64-3.553-3.12-8.448-1.28-12.474.4-.947.08-2.131-.72-2.605-.88-.474-1.92-.08-2.32.868-2.48 5.448-1.84 11.921 1.68 16.658 2.56 3.474 6.4 5.448 10.4 5.605 0 1.974.08 3.948.08 5.685.72.236 1.28.947 1.28 1.815 0 .869-.48 1.58-1.2 1.816.08 4.342.08 7.58.08 9.158 0 7.184-5.36 13.105-11.92 13.105-5.36 0-10.08-4.026-11.44-9.631.16-.237.24-.553.24-.869 0-3.79 1.76-7.42 4.64-9.552.8-.632 1.04-1.816.48-2.684-.56-.869-1.6-1.106-2.4-.553-3.36 2.447-5.52 6.395-6 10.658.08 0 .08 0 .16-.08-.08 0-.08 0-.16.08-1.12.316-2.24.473-3.44.473-7.2 0-13.12-6.473-13.12-14.447v-.474c.16-.236.24-.552.24-.947 0-.868.08-1.737.24-2.526.4-2.053 1.28-3.869 2.56-5.29.16-.237.4-.473.56-.631-.16.237-.4.394-.56.631 1.92-2.29 4.64-3.71 7.68-3.71.72 0 1.36.079 2.08.237.08 0 .16 0 .32.079 3.2.789 5.84 3.236 7.2 6.552.4.948 1.44 1.421 2.32.948.88-.395 1.28-1.58.88-2.527-.16-.473-.4-.947-.64-1.342-1.28-2.605-3.28-4.579-5.6-6-.08-.079-.16-.079-.24-.158-.4-.237-.8-.395-1.2-.631a13.09 13.09 0 0 0-3.44-.948c-.56-.079-1.04-.079-1.6-.079-2.8 0-5.44.948-7.6 2.527.08.079.24.158.32.236-.08-.078-.24-.157-.32-.236-.96.71-1.92 1.579-2.72 2.526-.08.079-.16.158-.16.237.08-.08.16-.158.16-.237a15.682 15.682 0 0 0-3.28 7.184 20.24 20.24 0 0 0-.48 4.421c0 10.105 7.44 18.237 16.56 18.237 1.12 0 2.16-.158 3.2-.316C23.68 116.79 29.68 122 36.64 122c8.48 0 15.36-7.579 15.36-16.895-.32-2.447-.4-10.42-.56-20.21zM12.56 50.158c0 .079.08.079.08.158s0 .079.08.158c0-.08 0-.08-.08-.158-.08 0-.08-.08-.08-.158zm-1.36.868c-.08.158-.16.237-.24.395 0 .079 0 .158-.08.237 0-.08 0-.158.08-.237.08-.158.16-.316.24-.395zm.8 2.842c-.24-.079-.48-.315-.64-.473.16.158.4.394.64.473.16.08.4.158.56.237.08.08.16.08.24.158.08.08.16.08.24.158-.32-.158-.64-.395-1.04-.553zm2.64.158l-.16.08.16-.08-1.28-2.21c-.08-.08-.08-.237-.16-.316.08.079.08.237.16.316l1.28 2.21zm3.76 24.395l-.08.474.08-.474zm-1.12-2.526c.08-.158.08-.237.16-.395-.08.158-.16.316-.16.395-.32 1.026.08 2.131.96 2.447h0c-.88-.316-1.28-1.42-.96-2.447zm-7.12 4.737l.8-.869-.88-.631.88.631-.8.869zm-8.24 9.947c0-.553 0-1.026.08-1.579-.08.553-.08 1.105-.08 1.579 0 1.026.8 1.895 1.76 1.895-.96 0-1.76-.79-1.76-1.895zM4.8 92c-.24.237-.56.395-.96.474.4 0 .72-.158.96-.474zm19.44 13.026l-.64.237.64-.237zm-2.16 4.263c.08.158.24.237.4.316-.16-.079-.24-.158-.4-.316zm1.28.553c.4 0 .8-.158 1.04-.395-.32.237-.64.395-1.04.395zM47.92 83.08v0zm.48 3.79h.64-.64zm2.4-.711c.32-.316.48-.79.48-1.263v-.158c-.08-1.026-.96-1.816-1.92-1.737.96-.079 1.84.71 1.92 1.737v.158c0 .473-.16.947-.48 1.263z"/>
            <path d="M39.6 101.79c.24.078.4.157.64.157.72 0 1.36-.473 1.6-1.184.88-2.605 3.2-4.342 5.76-4.342.16 0 .4 0 .56-.079.72-.237 1.2-.947 1.2-1.816 0-.868-.56-1.579-1.28-1.815-.16-.08-.32-.08-.48-.08-4 0-7.6 2.764-9.04 6.79-.32.868.08 1.974 1.04 2.368zM26.32 72.974c.96 0 1.76-.869 1.76-1.895s-.8-1.895-1.76-1.895c-3.76 0-7.28 2.527-8.8 6.237 1.2.158 2.32.474 3.44.947 1.04-2.052 3.12-3.394 5.36-3.394zM8.24 82.763c-1.2 1.421-2.16 3.237-2.56 5.29.48-1.895 1.36-3.71 2.56-5.29z"/>
        </g>
        <path fill="#384652" d="M96 82c.933 1.484 1.667 3.203 2 5-.333-1.875-1-3.594-2-5M99 79a19.232 19.232 0 0 1 3 7 16.193 16.193 0 0 0-3-7M98.2 87c.2.714.3 1.429.3 2.214 0 .286.1.572.3.786 0-1-.2-2-.6-3"/>
        <g fill="#2A3042">
            <path d="M58.255 91.624c-.158 0-.316 0-.473.079-.71.237-1.26.95-1.26 1.82 0 .87.472 1.581 1.181 1.819.158.079.315.079.552.079 2.52 0 4.806 1.74 5.672 4.35a1.651 1.651 0 0 0 1.576 1.187c.236 0 .394-.079.63-.158.867-.396 1.34-1.503.946-2.452-1.34-3.955-4.885-6.724-8.824-6.724zM79.212 68.209c-.945 0-1.733.87-1.733 1.898 0 1.029.788 1.899 1.733 1.899 2.206 0 4.176 1.345 5.279 3.401a12.72 12.72 0 0 1 3.388-.949c-1.497-3.718-4.885-6.249-8.667-6.249z"/>
            <path fill-rule="nonzero" d="M102.927 86.64c-.63-2.61-1.733-5.062-3.309-7.198-.788-.95-1.654-1.82-2.679-2.532-.157.08-.236.159-.394.317.158-.08.237-.158.394-.317-2.127-1.582-4.727-2.53-7.484-2.53-.552 0-1.103 0-1.576.078a12.72 12.72 0 0 0-3.388.95c-3.31 1.423-6.067 4.35-7.564 8.147-.394.95 0 2.136.867 2.532.867.395 1.89 0 2.285-.95 1.34-3.401 4.018-5.774 7.09-6.565.789-.159 1.498-.317 2.286-.317 2.993 0 5.672 1.424 7.563 3.718-.157-.237-.394-.474-.551-.633.157.238.394.396.551.633a11.851 11.851 0 0 1 2.521 5.3c.316 1.108.473 2.294.473 3.48v.475c0 7.99-5.83 14.476-12.921 14.476-1.103 0-2.285-.158-3.388-.474-.079 0-.158-.08-.236-.08.078 0 .157.08.236.08-.551-4.35-2.679-8.227-5.91-10.68-.787-.632-1.811-.395-2.363.554-.551.87-.315 2.057.473 2.69 2.836 2.136 4.57 5.696 4.57 9.572 0 .316.079.633.236.87-1.418 5.616-5.988 9.65-11.267 9.65-6.46 0-11.739-5.853-11.739-13.13 0-1.583 0-4.826.079-9.177-.71-.237-1.182-.95-1.182-1.82 0-.87.552-1.581 1.26-1.819 0-1.82.08-3.718.08-5.695 3.939-.08 7.642-2.136 10.242-5.617 3.466-4.746 4.097-11.232 1.654-16.69-.394-.95-1.497-1.345-2.284-.87-.867.474-1.182 1.66-.71 2.61 1.813 4.034 1.34 9.018-1.26 12.498-1.891 2.531-4.57 4.034-7.485 4.193.079-5.3.158-10.996.236-16.691.158-9.968.315-19.618.394-26.263h8.746c.945 0 1.733-.87 1.733-1.899 0-1.028-.788-1.898-1.733-1.898h-8.667v-4.35c0-6.013 4.412-10.996 9.77-10.996 5.436 0 9.77 4.904 9.77 10.995 0 .475-.08.95-.158 1.582l-.158 1.029-.315 2.135.315-2.135c-.157.316-.315.632-.315 1.028v11.707c0 1.583.788 3.086 1.97 3.956.867.632 1.97 1.107 3.073 1.107h2.994c.945 0 1.733-.87 1.733-1.898 0-1.029-.788-1.899-1.733-1.899h-2.994c-.867 0-1.576-.554-1.655-1.107V34.669v-.238c-.079-.949-.867-1.66-1.655-1.66.867 0 1.576.711 1.734 1.66.866-.316 1.812-.395 2.679-.395 5.436 0 9.77 4.904 9.77 10.995 0 1.503-.237 2.927-.789 4.272-.236 0-.472 0-.63.08-4.097 1.66-6.854 6.09-6.854 10.916 0 1.028.709 1.898 1.733 1.898.945 0 1.733-.87 1.733-1.898 0-2.848 1.418-5.38 3.546-6.803l.788.237c5.12 1.503 8.745 6.724 8.745 12.657 0 4.192-1.733 7.99-4.727 10.441.945.712 1.89 1.582 2.679 2.532 3.466-3.164 5.436-7.91 5.436-12.973 0-6.883-3.703-12.974-9.218-15.584a16.425 16.425 0 0 0 1.103-5.854c0-8.148-5.91-14.792-13.237-14.792-.709 0-1.418.079-2.127.237-.315-7.831-6.145-14.16-13.236-14.16-7.328 0-13.237 6.645-13.237 14.793 0 1.028 0 3.243-.078 6.25-.08 6.644-.237 17.165-.394 28.081-.08 6.408-.158 12.815-.237 18.669-.157 9.809-.236 17.798-.236 20.488 0 9.334 6.776 16.928 15.127 16.928 6.855 0 12.764-5.22 14.576-12.42 1.024.238 2.127.317 3.151.317 8.982 0 16.31-8.227 16.31-18.273-.08-1.424-.237-2.927-.63-4.43zM92.764 49.224c-.08.158-.158.316-.158.475.079-.159.079-.317.158-.475zM90.715 53.1l1.26-2.215c.08-.158.158-.237.237-.395-.079.158-.157.237-.236.395l-1.26 2.215.314.08-.315-.08zm3.388-.791a1.863 1.863 0 0 1-.71.633 5.018 5.018 0 0 0-1.102.633c.315-.238.709-.396 1.103-.633.236-.158.473-.317.709-.633z"/>
        </g>
        <path fill="url(#b)" d="M123 5v31.001c0 8.398-6.891 15.148-15.287 15.148h-21.07L74.764 63V51.227H67v-31.08C67 11.75 73.891 5 82.287 5H123z"/>
        <path fill="#2A3042" fill-rule="nonzero" d="M106.644 38.225c-2.527 0-2.527-4.583 0-4.583 3.871 0 3.871 4.583 0 4.583m-8.847-16.909v-1.422c0-.395-.158-1.422 0-1.738.158-.237 1.264-.395 1.58-.474 2.607-.79 5.45-1.58 8.057-2.45.711-.237 1.185-.474 2.528-.71v1.421c0 .553-.079 1.423-.237 1.897-.079.316-.079.079-.395.316-.316.158-.869.237-1.185.316-2.607.71-5.292 1.422-7.9 2.212-.868.158-1.816.395-2.448.632m-5.135 18.015c-3.791 0-3.791-4.583 0-4.583 3.16 0 3.16 4.583 0 4.583m20.223-3.398c0-8.059.158-16.197.079-24.256 0-.87-.395-1.818-1.501-1.66-.474.08-1.027.316-1.5.474-2.134.79-4.346 1.502-6.478 2.292-2.291.79-4.582 1.58-6.873 2.45-.474.157-.869.315-1.343.473-.79.316-1.738.474-1.896 1.423-.079.395-.079.79-.079 1.185v12.958c-1.896-.711-4.976.237-6.32 2.291-1.421 2.133-1.263 5.136.317 7.19 1.58 1.976 4.344 2.766 6.714 1.897 2.291-.87 3.713-3.161 3.792-5.61.079-2.845 0-5.69 0-8.534v-2.291c0-.237-.079-.948 0-1.106.237-.395 2.133-.553 2.528-.632 3.08-.87 5.687-1.739 9.48-2.608v8.534c-4.425-1.739-8.611 1.422-8.453 5.688.158 4.188 4.66 7.033 8.452 5.136.948-.474 1.738-1.264 2.291-2.133.474-.632 1.185-2.291.79-3.16"/>
        <path fill="#2A3042" fill-rule="nonzero" d="M125.482 35.525V4.273H84.817c-8.402 0-15.299 6.883-15.299 15.27v31.253h7.769v11.947l11.89-11.947h21.006c8.482.079 15.299-6.805 15.299-15.27zm3.884-35.05v35.13c0 10.522-8.561 19.147-19.104 19.147h-19.5L73.402 72V54.673h-7.768v-35.13C65.634 9.02 74.195.396 84.738.396h44.628v.079z"/>
    </g>
</svg>
